<svg xmlns="http://www.w3.org/2000/svg" width="157" height="106" fill="none">
  <path fill="#C1C0C0" d="M56.396 88.975a.163.163 0 0 1-.035-.149c.025-.097.135-.158.246-.137l8.151 1.579c.111.023.18.12.155.217-.025.097-.134.159-.245.138l-6.42-1.226-.004-.002-1.728-.351a.21.21 0 0 1-.12-.07ZM77.495 90.257a.183.183 0 0 1-.033-.059c-.03-.097.033-.197.143-.224l6.035-1.513 1.853-.434c.11-.027.22.03.254.127.03.097-.035.197-.144.224l-7.888 1.947a.222.222 0 0 1-.22-.068ZM93.61 84.558a.167.167 0 0 1 .032-.247l6.017-4.496 1.298-.89a.227.227 0 0 1 .288.029c.059.067.059.19-.027.253l-6.294 4.687-1.02.7a.228.228 0 0 1-.288-.029l-.007-.007Z"/>
  <path fill="#C1C0C0" d="M47.951 85.603a.163.163 0 0 1-.023-.18c.043-.09.162-.134.266-.097l1.694.592.011.005 6.75 2.779c.103.042.148.147.103.237-.043.09-.162.133-.265.097l-1.168-.41-7.288-2.966a.209.209 0 0 1-.08-.057ZM75.952 15.819a.165.165 0 0 1-.031-.161c.03-.09.136-.145.241-.124l7.264 1.397 1.2.42c.102.036.154.133.122.223s-.14.144-.245.123l-7.837-1.6-.624-.217a.205.205 0 0 1-.09-.061ZM111.891 60.011a.164.164 0 0 1-.04-.12l.553-7.275.189-1.25c.015-.097.115-.166.226-.156.113.01.193.096.186.193l-.557 7.298-.185 1.227c-.015.097-.116.166-.226.156a.212.212 0 0 1-.146-.073ZM34.951 75.115a.166.166 0 0 1 .021-.238.23.23 0 0 1 .286-.004l1.213.977.014.014 5.35 5.3c.087.08.07.183-.008.25a.23.23 0 0 1-.285.004l-1.034-.832-5.545-5.458-.012-.013Z"/>
  <path fill="#C1C0C0" d="M84.384 17.627a.165.165 0 0 1-.006-.209.224.224 0 0 1 .259-.064l7.275 2.962c.02.008.037.019.054.031l.81.652c.077.056.09.16.033.236a.223.223 0 0 1-.26.062l-7.532-3.164a.181.181 0 0 1-.052-.03l-.555-.45a.16.16 0 0 1-.026-.026ZM58.124 89.326a.163.163 0 0 1-.036-.14c.019-.097.122-.163.232-.148l2.228.282.018.003 5.325 1.087c.108.023.177.115.157.212-.02.095-.123.16-.233.146l-1.133-.143-6.435-1.229a.215.215 0 0 1-.123-.07ZM85.38 88.31a.166.166 0 0 1-.02-.03c-.048-.085-.01-.19.086-.237l6.344-3.076 1.908-.685c.101-.037.222.003.265.09.047.088.008.193-.088.238l-6.93 3.287-1.32.474a.224.224 0 0 1-.245-.06ZM52.233 18.825a.16.16 0 0 1-.016-.024c-.047-.078-.023-.174.056-.228l.7-.478a.213.213 0 0 1 .068-.03l7.579-1.953c.095-.024.195.01.242.092.046.078.022.173-.056.226l-.357.245a.197.197 0 0 1-.065.03l-7.922 2.185a.223.223 0 0 1-.229-.065ZM76.307 90.453a.163.163 0 0 1-.034-.065c-.026-.093.034-.189.14-.217l4.896-1.32 2.35-.394c.107-.017.21.043.24.137.025.095-.039.19-.146.217l-6.035 1.513-1.206.2a.224.224 0 0 1-.205-.07Z"/>
  <path fill="#C1C0C0" d="M76.546 16.029a.165.165 0 0 1-.017-.193.218.218 0 0 1 .23-.093l7.838 1.6a.218.218 0 0 1 .094.043l.555.45a.167.167 0 0 1 .041.22.218.218 0 0 1-.232.09l-8.11-1.82a.23.23 0 0 1-.088-.042l-.284-.23a.181.181 0 0 1-.027-.025ZM29.718 40.318a.168.168 0 0 1-.038-.132l.172-1.144c.003-.02.01-.04.02-.057l3.708-6.471c.045-.08.15-.119.246-.093.097.028.157.11.144.199l-.156 1.027a.184.184 0 0 1-.02.056l-3.724 6.588a.218.218 0 0 1-.246.093.205.205 0 0 1-.106-.066Zm.54-1.196-.005.026.84-1.484-.835 1.458ZM112.444 52.736a.177.177 0 0 1-.039-.084l-1.083-7.258a.155.155 0 0 1 0-.048l.183-1.213c.013-.09.101-.158.205-.158.104.001.191.07.205.159l1.089 7.233a.193.193 0 0 1 0 .048l-.188 1.238c-.014.09-.102.157-.206.157a.217.217 0 0 1-.166-.074ZM60.155 16.639a.167.167 0 0 1-.025-.04c-.035-.076-.009-.162.064-.212l.357-.244a.223.223 0 0 1 .111-.038l7.937-.542c.112-.007.21.067.222.165.01.098-.071.186-.184.197l-8.293.787a.222.222 0 0 1-.19-.073Z"/>
  <path fill="#C1C0C0" d="M60.511 16.395a.186.186 0 0 1-.035-.066c-.023-.088.03-.177.124-.21l.662-.238a.248.248 0 0 1 .068-.014l7.274-.305c.114-.005.211.071.217.171.007.1-.077.185-.19.193l-7.937.542a.218.218 0 0 1-.183-.073Z"/>
  <path fill="#C1C0C0" d="M61.173 16.157a.177.177 0 0 1-.038-.08c-.015-.092.05-.18.151-.204l.943-.222 6.382-.089c.114 0 .207.077.21.176.005.1-.083.183-.196.188l-7.275.305a.222.222 0 0 1-.177-.074Z"/>
  <path fill="#C1C0C0" d="M62.116 15.935a.17.17 0 0 1-.04-.09c-.01-.094.063-.18.169-.196l1.188-.196 5.187.109c.112.003.203.085.202.183 0 .099-.091.18-.204.182l-6.332.082a.218.218 0 0 1-.17-.074Z"/>
  <path fill="#C1C0C0" d="M63.304 15.74a.176.176 0 0 1-.04-.098c-.006-.095.071-.178.179-.191l1.386-.166 3.803.278c.112.007.195.093.19.191-.007.098-.1.174-.212.173l-5.144-.113a.218.218 0 0 1-.162-.075Z"/>
  <path fill="#C1C0C0" d="M64.69 15.574a.17.17 0 0 1-.04-.108c0-.093.08-.173.187-.181l1.53-.128c.021-.002.042-.001.062.003l2.227.406c.106.02.18.108.163.205-.015.095-.112.163-.222.155l-3.757-.279a.212.212 0 0 1-.15-.073Z"/>
  <path fill="#C1C0C0" d="M66.22 15.446a.166.166 0 0 1-.04-.122c.008-.091.091-.163.195-.168l1.62-.084a.227.227 0 0 1 .151.048l.609.49a.168.168 0 0 1 .044.217.215.215 0 0 1-.226.095l-2.227-.406a.212.212 0 0 1-.125-.07Z"/>
  <path fill="#C1C0C0" d="M67.84 15.362a.166.166 0 0 1-.028-.172.207.207 0 0 1 .19-.118l1.64-.036a.203.203 0 0 1 .204.132c.025.08-.014.165-.095.207l-1.031.527a.23.23 0 0 1-.245-.023l-.608-.49a.181.181 0 0 1-.027-.027Zm1.002.056-.317.006.118.096.2-.102Z"/>
  <path fill="#C1C0C0" d="M68.448 15.852a.174.174 0 0 1-.026-.041c-.037-.084 0-.179.088-.224l1.032-.527a.243.243 0 0 1 .106-.025l1.604.009c.104.001.192.073.205.162.01.092-.058.177-.16.198l-2.636.518a.223.223 0 0 1-.213-.07Z"/>
  <path fill="#C1C0C0" d="M68.448 15.852a.16.16 0 0 1-.036-.076c-.02-.096.05-.188.157-.21l2.636-.518a.245.245 0 0 1 .055-.004l1.503.058c.108.005.194.08.198.175.005.094-.074.176-.18.188l-4.14.46a.221.221 0 0 1-.193-.073Z"/>
  <path fill="#C1C0C0" d="M68.448 15.852a.17.17 0 0 1-.039-.09c-.012-.098.068-.186.18-.199l4.14-.46a.354.354 0 0 1 .043 0l1.345.101c.108.01.19.09.189.182 0 .095-.083.174-.19.18l-5.485.36a.219.219 0 0 1-.183-.074Z"/>
  <path fill="#C1C0C0" d="M68.448 15.852a.17.17 0 0 1-.04-.098c-.007-.099.078-.184.19-.191l5.485-.36c.016 0 .03 0 .045.003l1.135.145c.107.012.183.095.178.19-.007.093-.092.168-.2.171l-6.619.214a.217.217 0 0 1-.174-.074Z"/>
  <path fill="#C1C0C0" d="M68.448 15.852a.168.168 0 0 1-.04-.104c-.002-.1.086-.182.2-.185l6.619-.214a.207.207 0 0 1 .054.005l.884.18c.102.02.171.106.159.198-.011.091-.1.16-.205.161l-7.503.033a.217.217 0 0 1-.168-.074Z"/>
  <path fill="#C1C0C0" d="M68.448 15.852a.169.169 0 0 1-.04-.11c.001-.1.093-.18.206-.18l7.504-.033c.026 0 .053.004.077.014l.595.21c.093.03.146.119.125.204-.02.087-.107.148-.207.146l-8.098-.176a.218.218 0 0 1-.162-.075Z"/>
  <path fill="#C1C0C0" d="M68.448 15.852a.17.17 0 0 1-.04-.114c.004-.1.099-.178.212-.176l8.098.176a.23.23 0 0 1 .135.049l.284.228a.166.166 0 0 1 .05.205.21.21 0 0 1-.201.111l-8.383-.405a.213.213 0 0 1-.155-.074ZM33.442 33.73a.167.167 0 0 1-.038-.133l.156-1.026a.169.169 0 0 1 .042-.088l5.096-5.689a.224.224 0 0 1 .243-.055c.087.032.137.112.125.192l-.13.876a.167.167 0 0 1-.04.088l-5.123 5.838a.225.225 0 0 1-.33-.003Zm.52-1.061-.046.304 4.617-5.262.026-.172-4.596 5.13ZM99.626 80.061a.165.165 0 0 1 .002-.22l4.869-5.533 1.556-1.072a.23.23 0 0 1 .274.015c.075.075.08.17.016.241l-5.096 5.69-1.327.915a.228.228 0 0 1-.294-.036Zm5.341-5.62-.179.123-3.805 4.333 3.984-4.456ZM60.352 89.608a.164.164 0 0 1-.037-.136c.017-.094.113-.161.221-.153l2.64.204a.44.44 0 0 1 .038.005l4.032.988c.104.026.167.116.148.208-.018.092-.115.157-.221.148l-1.346-.103-5.355-1.091a.21.21 0 0 1-.12-.07Z"/>
  <path fill="#C1C0C0" d="M60.12 16.88a.167.167 0 0 1-.039-.131l.035-.241c.012-.083.088-.149.183-.158l8.293-.787c.112-.01.213.058.228.16.014.098-.065.188-.176.202l-8.328 1.028a.224.224 0 0 1-.196-.073ZM34.951 75.115l-.012-.016-4.192-6.293a.169.169 0 0 1 .048-.233.23.23 0 0 1 .27.007l1.348 1.085c.017.013.027.028.04.043l4.057 6.186c.052.078.03.176-.05.233a.23.23 0 0 1-.269-.008l-1.213-.978a.173.173 0 0 1-.027-.026Zm-3.154-5.453 3.483 5.23.2.16-3.37-5.138-.313-.252ZM38.564 27.891a.164.164 0 0 1-.038-.132l.13-.876a.172.172 0 0 1 .071-.115l6.294-4.687a.228.228 0 0 1 .234-.02.18.18 0 0 1 .105.184l-.104.686a.176.176 0 0 1-.069.112l-6.32 4.877a.23.23 0 0 1-.233.024.206.206 0 0 1-.07-.053Zm.492-.89-.049.326 5.849-4.512.023-.15L39.056 27ZM111.36 45.479a.184.184 0 0 1-.029-.05l-2.68-6.967a.157.157 0 0 1-.009-.082l.172-1.144c.013-.083.089-.148.185-.157.095-.007.187.045.216.123l2.691 6.896c.01.027.014.055.009.084l-.183 1.213c-.013.084-.089.15-.185.157a.22.22 0 0 1-.187-.073Zm-2.302-7.093 2.381 6.186.059-.397-2.389-6.124-.051.335Z"/>
  <path fill="#C1C0C0" d="M44.884 23.015a.166.166 0 0 1-.039-.133l.105-.687a.184.184 0 0 1 .105-.134l7.245-3.503a.231.231 0 0 1 .217.008c.064.04.097.106.088.175l-.071.474a.183.183 0 0 1-.1.133l-7.279 3.716a.231.231 0 0 1-.22-.006.192.192 0 0 1-.051-.043Zm.462-.68-.034.228 6.825-3.485.004-.028-6.795 3.285Z"/>
  <path fill="#C1C0C0" d="M52.162 19.298a.166.166 0 0 1-.038-.132l.07-.474a.19.19 0 0 1 .144-.148l7.922-2.186a.232.232 0 0 1 .195.033c.055.044.081.102.072.164l-.034.24a.189.189 0 0 1-.138.15l-7.958 2.417a.23.23 0 0 1-.199-.03.183.183 0 0 1-.036-.034Zm.426-.442-.01.066 2.27-.69-2.26.624ZM74.921 90.618a.171.171 0 0 1-.034-.063c-.026-.091.03-.184.128-.216l3.564-1.16 2.763-.334c.108-.013.207.05.23.142.022.092-.038.185-.142.213l-4.896 1.32-1.419.17a.221.221 0 0 1-.194-.072Zm3.967-1.112-.209.024-.55.18.759-.204ZM68.448 15.852a.167.167 0 0 1-.04-.121c.008-.1.104-.174.218-.168l8.382.405a.219.219 0 0 1 .148.066.17.17 0 0 1 .046.141l-.038.24c-.015.096-.114.165-.223.156l-8.344-.646a.215.215 0 0 1-.15-.073ZM41.515 81.392a.164.164 0 0 1-.014-.196c.05-.08.16-.114.257-.081l2.156.756a.189.189 0 0 1 .05.025l5.974 4.048a.167.167 0 0 1 .054.234.22.22 0 0 1-.256.079l-1.694-.593a.183.183 0 0 1-.047-.023l-6.437-4.212a.179.179 0 0 1-.043-.037Zm2.22.808-.663-.232 5.147 3.367.297.103-4.781-3.239ZM108.681 38.512l-.014-.017-4.176-6.405a.167.167 0 0 1-.025-.115l.156-1.03c.012-.076.078-.139.164-.154.086-.015.173.01.22.087l4.192 6.291a.162.162 0 0 1 .027.117l-.172 1.143c-.012.077-.078.139-.166.154a.222.222 0 0 1-.206-.07Zm-3.796-6.55 3.838 5.885.082-.548-3.853-5.781-.067.445Z"/>
  <path fill="#C1C0C0" d="M49.646 86.195a.165.165 0 0 1-.03-.167c.035-.088.14-.138.243-.118l2.512.513c.016.003.03.008.045.014l5.967 2.618c.094.042.139.138.103.225-.035.086-.139.137-.242.115l-1.728-.351-6.79-2.792a.204.204 0 0 1-.08-.057Zm2.608.578-.575-.117 4.972 2.046-4.397-1.93ZM76.792 16.498a.167.167 0 0 1-.038-.134l.038-.24a.183.183 0 0 1 .089-.125.235.235 0 0 1 .167-.026l8.108 1.82c.103.023.17.108.155.2l-.071.474a.183.183 0 0 1-.092.128.235.235 0 0 1-.171.022l-8.075-2.052a.21.21 0 0 1-.11-.067Zm8.084 1.607-3.61-.81 3.594.914.016-.104ZM62.992 89.812a.164.164 0 0 1-.037-.137c.016-.091.108-.157.213-.153l2.947.112a.256.256 0 0 1 .07.014l2.587.934c.095.033.146.122.124.208-.02.086-.11.146-.21.142l-1.504-.059-4.079-.993a.21.21 0 0 1-.11-.068Zm3.069.185-1.108-.042 2.293.56.282.011-1.467-.53ZM98.999 26.506a.165.165 0 0 1-.038-.132l.13-.873c.01-.07.066-.13.143-.15a.226.226 0 0 1 .216.053l5.532 5.445c.04.031.058.092.051.145l-.156 1.03a.19.19 0 0 1-.146.15.224.224 0 0 1-.216-.056l-5.506-5.601-.01-.011Zm.443-.564-.06.399 5.145 5.233.083-.546-5.168-5.086Z"/>
  <path fill="#C1C0C0" d="M92.367 21.93a.162.162 0 0 1-.038-.131l.103-.69a.186.186 0 0 1 .125-.144.234.234 0 0 1 .204.022l6.659 4.392c.06.043.09.105.08.17l-.13.873a.185.185 0 0 1-.127.145.23.23 0 0 1-.206-.026l-6.631-4.575a.21.21 0 0 1-.04-.036Zm.428-.465-.041.279 6.253 4.314.068-.452-6.28-4.14Z"/>
  <path fill="#C1C0C0" d="M84.868 18.55a.167.167 0 0 1-.039-.132l.071-.474a.187.187 0 0 1 .107-.135.232.232 0 0 1 .188-.004l7.53 3.164c.083.033.129.11.117.188l-.104.69a.182.182 0 0 1-.109.136.23.23 0 0 1-.19.001l-7.499-3.38a.208.208 0 0 1-.072-.054Zm.405-.309-.014.098 7.107 3.204.046-.303-7.139-2.999ZM73.39 90.746a.174.174 0 0 1-.03-.053c-.03-.082.009-.17.095-.213l2.091-1.04a.219.219 0 0 1 .083-.024l3.003-.248c.103-.01.198.051.221.141.024.09-.032.18-.13.212l-3.563 1.16a.258.258 0 0 1-.052.01l-1.532.129a.22.22 0 0 1-.186-.073Zm2.321-.97-1.207.6.536-.045 2.061-.67-1.39.114ZM60.12 16.88a.166.166 0 0 1-.031-.162.203.203 0 0 1 .169-.126l8.328-1.028c.113-.015.217.057.233.151.019.099-.057.191-.168.209l-8.042 1.258a.227.227 0 0 1-.177-.045l-.285-.23a.172.172 0 0 1-.027-.027ZM65.94 89.924a.163.163 0 0 1-.037-.144c.02-.085.105-.146.205-.146l3.146.019c.054 0 .106.02.145.053l1.045.924c.054.054.077.13.044.2a.208.208 0 0 1-.191.11l-1.603-.008a.218.218 0 0 1-.078-.013l-2.588-.935a.2.2 0 0 1-.088-.06Zm3.226.092-1.994-.011 1.563.564 1.062.005-.631-.558ZM83.53 88.744a.177.177 0 0 1-.024-.037c-.04-.084-.004-.18.085-.227L89.1 85.6a.239.239 0 0 1 .052-.019l2.684-.63c.102-.025.21.02.246.107.04.085 0 .183-.092.227l-6.343 3.077-1.897.45a.222.222 0 0 1-.22-.068Zm5.757-2.818-4.201 2.196.407-.095 4.817-2.341-1.023.24ZM30.759 68.822a.166.166 0 0 1-.03-.049l-2.69-6.895c-.031-.08.003-.166.081-.212a.23.23 0 0 1 .254.019l1.43 1.152c.026.02.044.048.056.076l2.61 6.828c.03.08-.005.166-.084.212a.23.23 0 0 1-.252-.02l-1.348-1.084a.181.181 0 0 1-.027-.027Zm-2.065-6.386 2.41 6.175.718.579-2.338-6.116-.79-.638Z"/>
  <path fill="#C1C0C0" d="m71.772 90.83-.006-.008a.165.165 0 0 1-.013-.181l.537-.958a.213.213 0 0 1 .173-.101l3.173-.166c.096-.004.183.051.21.13.028.081-.013.168-.096.21l-2.091 1.041a.229.229 0 0 1-.09.024l-1.618.082a.219.219 0 0 1-.179-.074Zm.837-.89-.327.582 1.215-.062 1.272-.634-2.16.113Z"/>
  <path fill="#C1C0C0" d="M69.085 89.943a.163.163 0 0 1-.024-.176.207.207 0 0 1 .186-.114l3.223-.072c.072 0 .151.024.18.084.039.054.043.122.011.179l-.537.958a.21.21 0 0 1-.18.101l-1.642.038a.224.224 0 0 1-.152-.054l-1.045-.924-.02-.02Zm3.053.01-2.4.053.642.568 1.428-.032.33-.589ZM68.448 15.852a.165.165 0 0 1-.039-.127c.012-.1.112-.171.223-.162l8.344.646c.086.006.159.057.181.13a.171.171 0 0 1-.07.195l-.356.244a.226.226 0 0 1-.153.037l-7.989-.89a.213.213 0 0 1-.14-.073ZM104.494 74.528a.166.166 0 0 1-.019-.188l3.54-6.357a.184.184 0 0 1 .058-.064l1.684-1.156a.23.23 0 0 1 .259.004.165.165 0 0 1 .053.222l-3.704 6.473a.183.183 0 0 1-.057.061l-1.52 1.04a.23.23 0 0 1-.258-.002.176.176 0 0 1-.036-.033Zm3.871-6.347-3.123 5.61.774-.53 3.269-5.712-.92.632ZM91.723 85.234l-.008-.012a.167.167 0 0 1 .037-.232l5.503-4.312a.223.223 0 0 1 .06-.033l2.4-.86c.093-.034.204-.01.254.074.053.076.035.175-.043.233l-6.016 4.497a.188.188 0 0 1-.056.03l-1.886.675a.224.224 0 0 1-.245-.06Zm5.78-4.264-4.577 3.588.74-.265 5.006-3.741-1.168.418Z"/>
  <path fill="#C1C0C0" d="M60.406 17.11a.165.165 0 0 1-.04-.125c.01-.081.079-.147.17-.162l8.042-1.258c.111-.018.215.046.24.144.022.096-.048.191-.157.213l-7.449 1.466a.237.237 0 0 1-.122-.009l-.594-.207a.206.206 0 0 1-.09-.062Z"/>
  <path fill="#C1C0C0" d="M52.162 19.298a.164.164 0 0 1-.035-.144.19.19 0 0 1 .134-.136l7.958-2.417a.226.226 0 0 1 .208.037l.285.23a.17.17 0 0 1 .064.169.19.19 0 0 1-.128.135l-7.684 2.64a.231.231 0 0 1-.216-.036l-.559-.451a.181.181 0 0 1-.027-.027Zm6.613-1.873-6.05 1.838.207.167 5.843-2.005ZM68.448 15.852a.166.166 0 0 1-.038-.135c.016-.098.12-.165.23-.153l7.99.89c.094.01.166.075.179.157.012.082-.04.16-.127.192l-.662.237a.24.24 0 0 1-.114.011l-7.327-1.127a.212.212 0 0 1-.13-.072ZM28.068 61.927a.172.172 0 0 1-.039-.085l-1.087-7.234c-.012-.076.032-.149.109-.184a.23.23 0 0 1 .236.027l1.456 1.173c.037.027.06.069.066.111l1.06 7.213c.01.076-.033.15-.11.185a.23.23 0 0 1-.235-.028l-1.43-1.152a.173.173 0 0 1-.026-.026Zm-.642-6.87 1.004 6.673.956.77-.978-6.653-.982-.79Z"/>
  <path fill="#C1C0C0" d="M76.437 16.742a.175.175 0 0 1-.037-.077.172.172 0 0 1 .076-.174l.356-.245a.23.23 0 0 1 .184-.03l8.076 2.052a.19.19 0 0 1 .145.14.171.171 0 0 1-.075.178l-.697.479a.229.229 0 0 1-.192.028l-7.735-2.286a.208.208 0 0 1-.101-.065Zm8.15 1.776-6.862-1.744 6.573 1.944.29-.2ZM108.035 68.171a.164.164 0 0 1-.034-.154l2.067-6.936a.18.18 0 0 1 .072-.097l1.79-1.224a.23.23 0 0 1 .242-.008c.074.043.109.123.085.2l-2.172 7.003a.184.184 0 0 1-.072.096l-1.684 1.156a.228.228 0 0 1-.294-.036Zm2.415-6.937-1.893 6.355 1.146-.788 1.991-6.419-1.244.852ZM36.164 76.092a.165.165 0 0 1-.003-.212.224.224 0 0 1 .246-.064l2.535.886c.031.01.06.029.081.052l4.972 5.168c.066.05.067.156.011.224a.224.224 0 0 1-.244.063l-2.157-.756a.208.208 0 0 1-.078-.048l-5.35-5.3a.13.13 0 0 1-.013-.013Zm2.577.931-1.677-.586 4.74 4.694 1.341.47-4.404-4.578ZM52.157 86.708a.164.164 0 0 1-.03-.163c.03-.084.126-.138.226-.125l3.232.41c.026.003.051.011.074.022l4.962 2.49c.086.042.127.135.094.217-.032.084-.127.135-.225.122l-2.228-.282a.233.233 0 0 1-.063-.018l-5.967-2.618a.206.206 0 0 1-.075-.055Zm3.331.478-1.923-.245 4.788 2.101 1.117.142-3.982-1.998ZM61 17.318a.165.165 0 0 1-.04-.109c0-.084.066-.157.16-.177l7.45-1.466c.108-.02.22.038.245.133.028.096-.036.193-.144.22l-6.567 1.646a.239.239 0 0 1-.104.002l-.88-.18a.214.214 0 0 1-.12-.069ZM44.884 23.014a.168.168 0 0 1-.04-.127.185.185 0 0 1 .102-.138l7.278-3.716a.23.23 0 0 1 .245.023l.559.451a.17.17 0 0 1 .066.15.182.182 0 0 1-.096.138l-7.026 3.92a.228.228 0 0 1-.25-.02l-.811-.654a.172.172 0 0 1-.027-.027Zm7.417-3.6-6.903 3.525.487.394 6.664-3.718-.248-.2ZM26.98 54.693a.167.167 0 0 1-.04-.12l.557-7.299a.186.186 0 0 1 .13-.157.23.23 0 0 1 .217.035l1.431 1.155c.048.036.071.091.067.147l-.532 7.317a.185.185 0 0 1-.13.156.229.229 0 0 1-.217-.034l-1.456-1.174a.181.181 0 0 1-.027-.026Zm.902-7.016-.522 6.833 1.064.858.499-6.851-1.041-.84Z"/>
  <path fill="#C1C0C0" d="M68.448 15.852a.163.163 0 0 1-.036-.145c.022-.096.128-.16.238-.142l7.327 1.127c.097.016.167.087.171.172.005.085-.059.162-.152.184l-.944.222a.232.232 0 0 1-.102 0l-6.383-1.349a.211.211 0 0 1-.119-.069ZM81.203 89.133a.177.177 0 0 1-.024-.037c-.039-.08-.008-.172.072-.22l4.457-2.707a.229.229 0 0 1 .08-.03l3.38-.562a.216.216 0 0 1 .231.115c.037.083 0 .176-.087.221l-5.51 2.88a.24.24 0 0 1-.067.022l-2.327.39a.224.224 0 0 1-.205-.072Zm4.705-2.643-3.615 2.195 1.329-.222 4.47-2.336-2.184.363ZM38.564 27.89a.163.163 0 0 1-.04-.109c0-.052.026-.1.07-.134l6.32-4.877c.079-.062.199-.06.276.002l.811.655a.17.17 0 0 1 .068.133c0 .051-.024.1-.066.134l-6.1 5.052a.228.228 0 0 1-.282.002l-1.03-.83a.182.182 0 0 1-.027-.027Zm6.484-4.739-6.008 4.635.719.58 5.799-4.803-.51-.412ZM27.537 47.394a.167.167 0 0 1-.033-.156l2.18-7.076a.196.196 0 0 1 .143-.127.232.232 0 0 1 .197.04l1.35 1.088c.059.043.08.115.06.18l-2.098 7.144a.195.195 0 0 1-.142.13.23.23 0 0 1-.198-.041l-1.432-1.156a.176.176 0 0 1-.027-.026Zm2.458-6.848-2.059 6.681 1.085.876 1.982-6.746-1.008-.811Z"/>
  <path fill="#C1C0C0" d="M61.88 17.497a.17.17 0 0 1-.04-.096c-.006-.085.056-.163.15-.186l6.568-1.646c.106-.027.223.023.253.118.035.093-.02.193-.123.228l-5.43 1.79a.24.24 0 0 1-.103.01l-1.137-.145a.213.213 0 0 1-.138-.073Zm1.887-.349-.733.183.127.016.606-.199ZM29.718 40.318a.165.165 0 0 1-.018-.19l3.723-6.587a.206.206 0 0 1 .148-.098c.064-.01.13.006.178.045l1.215.98c.066.051.086.14.047.212l-3.589 6.695a.2.2 0 0 1-.147.1.226.226 0 0 1-.18-.043l-1.35-1.088a.182.182 0 0 1-.027-.026Zm3.954-6.398-3.533 6.249 1.028.827 3.404-6.35-.899-.726Z"/>
  <path fill="#C1C0C0" d="M33.442 33.73a.166.166 0 0 1 .002-.22l5.122-5.838a.228.228 0 0 1 .304-.023l1.031.83c.078.062.09.168.028.242l-4.937 5.988a.226.226 0 0 1-.308.027l-1.215-.98a.176.176 0 0 1-.027-.026Zm5.315-5.679-4.869 5.55.904.729 4.694-5.692-.729-.587ZM43.672 82.148a.164.164 0 0 1-.021-.186.217.217 0 0 1 .234-.1l3.196.653c.032.007.062.02.086.038l5.29 3.908c.071.054.095.145.052.22-.042.076-.138.115-.232.096l-2.512-.512a.208.208 0 0 1-.078-.034l-5.975-4.047a.183.183 0 0 1-.04-.036Zm3.267.712-2.221-.454 5.184 3.514 1.628.332-4.59-3.392ZM84.171 19.03a.17.17 0 0 1-.04-.095.172.172 0 0 1 .08-.157l.696-.48a.233.233 0 0 1 .222-.017l7.499 3.38a.18.18 0 0 1 .112.145.174.174 0 0 1-.08.16l-1.014.695a.232.232 0 0 1-.23.015l-7.18-3.597a.193.193 0 0 1-.065-.05Zm.887-.373-.35.24L91.5 22.3l.65-.445-7.092-3.197ZM110.101 61.236a.16.16 0 0 1-.039-.12l.52-7.25a.175.175 0 0 1 .078-.131l1.823-1.25a.231.231 0 0 1 .224-.017.179.179 0 0 1 .111.172l-.554 7.276a.18.18 0 0 1-.079.131l-1.79 1.225a.23.23 0 0 1-.224.016.199.199 0 0 1-.07-.052Zm.888-7.265-.486 6.765 1.354-.926.516-6.788-1.384.95ZM97.226 80.921a.165.165 0 0 1 0-.215l4.447-5.381a.207.207 0 0 1 .089-.061l2.821-1.012a.225.225 0 0 1 .243.058l.002.002a.165.165 0 0 1-.003.22l-4.869 5.533a.203.203 0 0 1-.085.057l-2.4.86a.225.225 0 0 1-.24-.056l-.005-.005Zm4.747-5.34-3.985 4.823 1.675-.601 4.363-4.958-2.053.736ZM68.448 15.852a.164.164 0 0 1-.032-.159c.03-.093.139-.149.247-.126l6.383 1.35c.094.019.161.095.16.181-.003.086-.073.158-.17.175l-1.184.197a.241.241 0 0 1-.105-.007l-5.199-1.547a.208.208 0 0 1-.1-.064Zm5.565 1.22-.995-.21.81.241.185-.03ZM52.721 19.75a.165.165 0 0 1-.04-.11c0-.074.052-.141.13-.168l7.685-2.64a.236.236 0 0 1 .152.001l.595.208a.183.183 0 0 1 .13.165c.003.073-.046.14-.121.17l-7.112 2.839a.233.233 0 0 1-.162.003l-1.166-.407a.205.205 0 0 1-.09-.062Zm7.85-2.552-7.118 2.445.596.208 6.589-2.63-.067-.023Z"/>
  <path fill="#C1C0C0" d="M63.018 17.643a.174.174 0 0 1-.038-.083c-.014-.085.04-.165.132-.196l5.43-1.79a.218.218 0 0 1 .262.096c.045.088.004.191-.092.236l-4.086 1.89a.233.233 0 0 1-.115.02l-1.344-.1a.216.216 0 0 1-.15-.073Zm2.59-.713-1.492.492.37.028 1.122-.52Z"/>
  <path fill="#C1C0C0" d="M68.448 15.852a.163.163 0 0 1-.024-.178c.042-.089.154-.133.257-.102l5.199 1.547c.09.026.148.106.14.19-.01.084-.084.151-.179.162l-1.388.163a.228.228 0 0 1-.122-.018l-3.81-1.71a.196.196 0 0 1-.073-.054Zm4.46 1.362-1.673-.499 1.227.55.446-.051ZM55.39 87.118a.165.165 0 0 1-.032-.162c.03-.082.12-.135.216-.127l3.831.294a.219.219 0 0 1 .104.033l3.772 2.4a.168.168 0 0 1 .072.211c-.032.077-.12.125-.212.118l-2.64-.203a.213.213 0 0 1-.084-.024l-4.963-2.49a.193.193 0 0 1-.064-.05Zm3.923.363-2.834-.217 4.103 2.058 1.85.143-3.12-1.984ZM91.352 22.625a.17.17 0 0 1-.04-.111.176.176 0 0 1 .079-.14l1.015-.695a.23.23 0 0 1 .255 0l6.632 4.576c.05.034.079.088.08.143 0 .057-.03.11-.08.144L98 27.427a.228.228 0 0 1-.26-.005l-6.356-4.766a.19.19 0 0 1-.032-.03Zm1.18-.571-.686.47 6.033 4.524.95-.65-6.296-4.344ZM110.621 53.986a.162.162 0 0 1-.039-.086l-1.051-7.282a.173.173 0 0 1 .078-.166l1.791-1.225a.229.229 0 0 1 .205-.025c.069.026.117.08.127.145l1.084 7.258a.173.173 0 0 1-.078.167l-1.823 1.25a.233.233 0 0 1-.207.024.206.206 0 0 1-.087-.06Zm-.664-7.31.989 6.862 1.444-.99-1.021-6.839-1.412.967ZM89.04 85.865l-.014-.018a.166.166 0 0 1 .035-.22l4.77-4.139a.215.215 0 0 1 .092-.046l3.416-.804a.223.223 0 0 1 .236.09.167.167 0 0 1-.044.222l-5.503 4.312a.226.226 0 0 1-.084.04l-2.684.63a.223.223 0 0 1-.22-.067Zm5.043-4.083-4.174 3.622 1.88-.442 4.815-3.774-2.52.594ZM75.775 16.98a.167.167 0 0 1-.04-.108c0-.074.05-.14.129-.169l.661-.237a.236.236 0 0 1 .145-.005l7.733 2.288a.188.188 0 0 1 .142.166c.002.077-.049.146-.13.174l-1.297.466a.231.231 0 0 1-.155 0l-7.099-2.514a.212.212 0 0 1-.089-.061Zm.836-.152-.118.043 6.546 2.319.705-.253-7.133-2.109ZM36.164 76.093l-.013-.017-4.057-6.185a.167.167 0 0 1 .023-.21.228.228 0 0 1 .233-.05l2.817.99a.2.2 0 0 1 .105.081l3.775 6.082a.164.164 0 0 1-.026.208.228.228 0 0 1-.231.048l-2.535-.886a.205.205 0 0 1-.09-.061Zm-3.413-5.93 3.723 5.676 1.936.677-3.465-5.583-2.194-.77Z"/>
  <path fill="#C1C0C0" d="M64.362 17.743a.177.177 0 0 1-.036-.068c-.02-.08.023-.162.105-.2l4.087-1.892c.094-.043.205-.04.268.059.06.076.043.18-.037.24l-2.582 1.95a.222.222 0 0 1-.144.043l-1.503-.058a.218.218 0 0 1-.158-.074Zm2.726-1.086-1.786.826.657.025 1.129-.851Z"/>
  <path fill="#C1C0C0" d="M68.448 15.852a.164.164 0 0 1-.003-.212.225.225 0 0 1 .264-.058l3.81 1.71c.082.037.127.116.11.196s-.092.14-.184.147l-1.53.128a.225.225 0 0 1-.16-.047l-2.28-1.838a.173.173 0 0 1-.027-.026Zm3.25 1.48-1.821-.817 1.09.878.731-.06ZM78.485 89.458a.168.168 0 0 1 .027-.243l3.228-2.562a.223.223 0 0 1 .111-.045l3.948-.47a.214.214 0 0 1 .22.115c.035.079.004.168-.075.215l-4.456 2.707a.216.216 0 0 1-.09.03l-2.719.325a.221.221 0 0 1-.194-.072Zm3.486-2.497-2.683 2.13 2.004-.24 3.705-2.25-3.026.36ZM97.707 27.39a.168.168 0 0 1-.04-.128.182.182 0 0 1 .079-.123l1.292-.885a.227.227 0 0 1 .283.025l5.506 5.601a.15.15 0 0 1 .05.137.18.18 0 0 1-.078.126l-1.518 1.038a.227.227 0 0 1-.288-.03l-5.28-5.754-.006-.006Zm1.43-.742-.97.665 5.019 5.47 1.186-.81-5.235-5.325ZM109.57 46.704a.202.202 0 0 1-.031-.052l-2.576-7.037c-.027-.073.001-.152.07-.2l1.687-1.155a.226.226 0 0 1 .186-.03.195.195 0 0 1 .138.116l2.679 6.967c.029.073.001.154-.068.201l-1.791 1.226a.23.23 0 0 1-.188.03.21.21 0 0 1-.106-.066Zm-2.169-7.079 2.442 6.668 1.441-.987-2.54-6.6-1.343.92Z"/>
  <path fill="#C1C0C0" d="m106.994 39.667-.016-.021-4.006-6.522a.168.168 0 0 1 .054-.23l1.518-1.039a.228.228 0 0 1 .167-.035c.059.01.099.04.14.089l4.176 6.405c.051.078.029.178-.052.234l-1.687 1.155a.23.23 0 0 1-.17.035.21.21 0 0 1-.124-.071Zm-3.575-6.58 3.807 6.196 1.352-.926-3.967-6.085-1.192.815ZM65.866 17.801a.167.167 0 0 1 .032-.246l2.583-1.949a.227.227 0 0 1 .257-.008c.08.051.106.143.066.22l-.981 1.96a.21.21 0 0 1-.19.108l-1.602-.01a.218.218 0 0 1-.165-.075Zm2.192-1.396-1.472 1.11.913.006.559-1.116Z"/>
  <path fill="#C1C0C0" d="M69.112 17.775a.161.161 0 0 1-.031-.055l-.663-1.923c-.029-.079.008-.163.087-.207a.23.23 0 0 1 .25.02l2.28 1.838a.165.165 0 0 1 .056.195.208.208 0 0 1-.183.12l-1.617.086a.22.22 0 0 1-.18-.074Zm-.08-1.448.397 1.15.966-.05-1.363-1.1Z"/>
  <path fill="#C1C0C0" d="m67.467 17.812-.006-.007a.165.165 0 0 1-.017-.174l.981-1.96a.212.212 0 0 1 .202-.109c.086.007.163.058.185.13l.663 1.923a.163.163 0 0 1-.029.16.217.217 0 0 1-.162.074l-1.645.037a.22.22 0 0 1-.172-.074Zm1.112-1.544-.624 1.247L69 17.49l-.422-1.223ZM59.22 87.412a.164.164 0 0 1-.028-.168c.03-.076.113-.125.204-.122l4.282.162a.22.22 0 0 1 .144.059l2.437 2.35c.064.06.07.134.035.2a.211.211 0 0 1-.197.105l-2.947-.112a.228.228 0 0 1-.113-.034l-3.771-2.4a.195.195 0 0 1-.045-.04Zm4.355.232-3.508-.132 3.163 2.013 2.389.09-2.044-1.97ZM45.695 23.67a.168.168 0 0 1-.04-.092.175.175 0 0 1 .096-.17l7.026-3.92a.23.23 0 0 1 .187-.016l1.166.408c.071.024.121.08.13.147a.173.173 0 0 1-.084.17l-6.499 4.105a.231.231 0 0 1-.197.021l-1.694-.592a.205.205 0 0 1-.09-.062Zm7.215-3.825-6.595 3.68 1.212.423 6.1-3.853-.717-.25Z"/>
  <path fill="#C1C0C0" d="M53.887 20.157a.175.175 0 0 1-.04-.09c-.008-.078.04-.151.122-.184l7.112-2.838a.238.238 0 0 1 .132-.012l.88.18a.197.197 0 0 1 .16.152c.011.075-.031.148-.106.184l-6.262 3.012a.23.23 0 0 1-.146.018l-1.732-.353a.212.212 0 0 1-.12-.07Zm7.3-2.756-6.491 2.591 1.06.216 5.715-2.75-.283-.056ZM101.674 75.54a.163.163 0 0 1-.022-.183l3.223-6.243a.196.196 0 0 1 .111-.093l3.137-1.126a.226.226 0 0 1 .229.045.165.165 0 0 1 .034.204l-3.54 6.356a.196.196 0 0 1-.107.088l-2.821 1.012a.226.226 0 0 1-.244-.06Zm3.544-6.21-2.974 5.76 2.265-.813 3.267-5.865-2.558.918ZM75.481 89.705a.163.163 0 0 1-.005-.21l1.87-2.446a.21.21 0 0 1 .152-.08l4.36-.362a.22.22 0 0 1 .21.107.167.167 0 0 1-.05.209l-3.227 2.562a.221.221 0 0 1-.12.046l-3.004.248a.22.22 0 0 1-.186-.074Zm2.154-2.381-1.572 2.057 2.5-.207 2.713-2.153-3.64.303ZM32.107 69.907a.17.17 0 0 1-.03-.05l-2.61-6.828a.166.166 0 0 1 .054-.19.228.228 0 0 1 .219-.037l2.991 1.05c.058.02.102.063.12.115l2.436 6.768a.168.168 0 0 1-.055.188.23.23 0 0 1-.218.035l-2.817-.99a.205.205 0 0 1-.09-.06Zm-2.105-6.62 2.437 6.375 2.322.816-2.275-6.32-2.484-.872ZM74.831 17.201a.167.167 0 0 1-.04-.126.192.192 0 0 1 .153-.157l.944-.222a.235.235 0 0 1 .131.007l7.099 2.515c.081.03.134.102.13.18-.006.078-.068.144-.154.164l-1.851.435a.233.233 0 0 1-.146-.013l-6.191-2.728a.204.204 0 0 1-.075-.055Zm1.098-.138-.351.083 5.633 2.481 1.176-.275-6.458-2.289ZM63.502 87.573a.164.164 0 0 1-.022-.182.212.212 0 0 1 .19-.108l4.567.031c.085.001.161.048.192.118l1.016 2.338a.163.163 0 0 1-.023.169.216.216 0 0 1-.171.078l-3.146-.019a.225.225 0 0 1-.152-.06l-2.437-2.35-.014-.014Zm4.59.105-3.95-.027 2.056 1.984 2.753.017-.859-1.974Z"/>
  <path fill="#C1C0C0" d="M72.309 89.871a.165.165 0 0 1-.038-.137l.436-2.374c.016-.084.096-.147.192-.152l4.606-.24a.215.215 0 0 1 .192.093c.04.06.037.133-.008.191L75.82 89.7a.213.213 0 0 1-.159.08l-3.172.166a.226.226 0 0 1-.18-.074Zm.78-2.308-.368 2.005 2.813-.147 1.579-2.067-4.023.209Z"/>
  <path fill="#C1C0C0" d="M69.086 89.943a.184.184 0 0 1-.027-.043l-1.017-2.339a.163.163 0 0 1 .021-.166.216.216 0 0 1 .167-.08l4.676-.107a.218.218 0 0 1 .161.062.159.159 0 0 1 .049.149l-.436 2.374c-.016.086-.099.15-.199.152l-3.223.072a.218.218 0 0 1-.172-.074Zm-.553-2.27.86 1.977 2.906-.065.368-2.008-4.134.095ZM46.867 82.8a.164.164 0 0 1-.022-.182.214.214 0 0 1 .218-.106l4.115.521a.22.22 0 0 1 .116.05L55.7 86.88c.069.059.08.141.041.211a.216.216 0 0 1-.215.1l-3.232-.41a.231.231 0 0 1-.104-.042l-5.29-3.907a.201.201 0 0 1-.034-.032Zm4.186.585-3.33-.422 4.689 3.465 2.548.322-3.907-3.365ZM82.874 19.494a.168.168 0 0 1-.04-.125.186.186 0 0 1 .128-.15l1.298-.466a.23.23 0 0 1 .18.01l7.18 3.597c.07.032.11.1.105.17a.185.185 0 0 1-.128.156l-1.886.675a.23.23 0 0 1-.191-.016l-6.593-3.806a.207.207 0 0 1-.053-.045Zm1.45-.37-.841.3 6.172 3.564 1.39-.498-6.722-3.367Z"/>
  <path fill="#C1C0C0" d="M38.699 76.979a.165.165 0 0 1-.01-.203.22.22 0 0 1 .224-.082l3.759.768c.046.01.088.032.117.066l4.41 5.054c.036.053.056.146.01.21a.221.221 0 0 1-.222.078l-3.196-.653a.214.214 0 0 1-.11-.06l-4.973-5.168a.07.07 0 0 1-.009-.01Zm3.807.822-3.08-.629 4.526 4.704 2.567.524-4.013-4.599ZM39.595 28.722a.176.176 0 0 1-.037-.074.17.17 0 0 1 .062-.167l6.1-5.052a.228.228 0 0 1 .218-.037l1.694.593a.192.192 0 0 1 .126.13.167.167 0 0 1-.052.165l-5.636 5.214a.229.229 0 0 1-.227.044l-2.158-.755a.205.205 0 0 1-.09-.061Zm6.313-4.949L40.14 28.55l1.726.604 5.33-4.93-1.288-.45ZM85.66 86.426a.165.165 0 0 1 .009-.226l3.847-3.986a.214.214 0 0 1 .12-.062l4.302-.714c.09-.014.182.02.222.096a.166.166 0 0 1-.038.214l-4.77 4.138a.224.224 0 0 1-.107.05l-3.38.561a.222.222 0 0 1-.205-.07Zm4.124-3.927-3.421 3.545 2.742-.456 4.243-3.68-3.564.59ZM55.62 20.51a.17.17 0 0 1-.038-.076c-.016-.077.026-.154.104-.192l6.262-3.012a.228.228 0 0 1 .128-.02l1.138.144c.084.011.153.067.172.139.02.073-.014.149-.083.191l-5.172 3.15a.233.233 0 0 1-.147.03l-2.227-.282a.212.212 0 0 1-.138-.073Zm6.466-2.932L56.43 20.3l1.532.195 4.672-2.847-.548-.07ZM29.497 63.08a.172.172 0 0 1-.039-.085l-1.06-7.213a.175.175 0 0 1 .079-.168.23.23 0 0 1 .202-.025l3.051 1.072c.071.024.12.08.13.147l1 7.191a.175.175 0 0 1-.078.166.229.229 0 0 1-.203.025l-2.992-1.05a.205.205 0 0 1-.09-.06Zm-.643-7.038 1 6.8 2.553.896-.943-6.78-2.61-.916Z"/>
  <path fill="#C1C0C0" d="M93.81 81.725a.165.165 0 0 1-.007-.206l3.844-5.243a.206.206 0 0 1 .12-.077l4.02-.943a.214.214 0 0 1 .224.073.165.165 0 0 1-.003.21l-4.447 5.382a.211.211 0 0 1-.114.068l-3.416.804a.223.223 0 0 1-.22-.068Zm4.142-5.192-3.51 4.787 2.826-.665 4.062-4.915-3.378.793ZM104.897 69.297a.168.168 0 0 1-.034-.15l1.874-6.869a.192.192 0 0 1 .124-.126l3.328-1.192a.23.23 0 0 1 .215.031c.06.048.084.117.064.184l-2.067 6.935a.187.187 0 0 1-.122.122l-3.137 1.126a.226.226 0 0 1-.245-.06Zm2.219-6.843-1.756 6.433 2.667-.958 1.935-6.495-2.846 1.02ZM73.647 17.399a.165.165 0 0 1-.036-.144.195.195 0 0 1 .164-.143l1.184-.197a.231.231 0 0 1 .131.016l6.191 2.727c.08.037.126.11.113.188-.012.078-.079.14-.166.154l-2.329.388a.229.229 0 0 1-.152-.028L73.7 17.442a.18.18 0 0 1-.053-.043Zm1.321-.115-.613.102 4.549 2.63 1.645-.274-5.581-2.458ZM34.657 34.71a.165.165 0 0 1-.001-.215l4.938-5.988a.225.225 0 0 1 .244-.062l2.158.755c.058.02.102.062.12.114a.16.16 0 0 1-.023.154L37.53 35.59a.223.223 0 0 1-.25.07l-2.532-.887a.206.206 0 0 1-.09-.062Zm5.178-5.874-4.687 5.684 2.128.746 4.331-5.81-1.773-.62ZM89.466 23.3a.164.164 0 0 1-.036-.142c.013-.06.06-.11.124-.134l1.886-.675a.229.229 0 0 1 .212.03l6.355 4.765a.168.168 0 0 1 .07.168.187.187 0 0 1-.126.14l-2.4.86a.23.23 0 0 1-.222-.037l-5.84-4.951a.215.215 0 0 1-.023-.024Zm2.014-.572-1.475.528 5.514 4.675 1.961-.703-6-4.5ZM28.436 55.866a.167.167 0 0 1-.04-.12l.533-7.317a.18.18 0 0 1 .096-.14.23.23 0 0 1 .187-.017L32.2 49.32c.081.028.135.1.13.18l-.47 7.341a.178.178 0 0 1-.096.143.23.23 0 0 1-.187.016l-3.051-1.071a.208.208 0 0 1-.09-.062Zm.888-7.163-.505 6.936 2.645.928.445-6.958-2.585-.906Z"/>
  <path fill="#C1C0C0" d="M28.969 48.55a.165.165 0 0 1-.034-.154l2.1-7.144a.187.187 0 0 1 .106-.117.232.232 0 0 1 .17-.007l2.816.986c.095.033.15.123.125.21l-1.926 7.206a.187.187 0 0 1-.106.12.23.23 0 0 1-.172.008L29.06 48.61a.207.207 0 0 1-.09-.062Zm2.407-7.008-1.994 6.79 2.596.91 1.83-6.848-2.432-.852Z"/>
  <path fill="#C1C0C0" d="M31.068 41.405a.166.166 0 0 1-.02-.186l3.589-6.695c.047-.086.161-.126.263-.09l2.533.887a.198.198 0 0 1 .116.099.163.163 0 0 1-.002.141l-3.306 6.794c-.044.09-.162.134-.267.098l-2.815-.986a.205.205 0 0 1-.09-.062Zm3.86-6.57L31.517 41.2l2.424.849 3.143-6.46-2.154-.754ZM47.39 24.262a.185.185 0 0 1-.037-.072.172.172 0 0 1 .082-.184l6.498-4.105a.23.23 0 0 1 .168-.03l1.732.353a.2.2 0 0 1 .154.135.169.169 0 0 1-.068.181L50.2 24.806a.229.229 0 0 1-.18.039l-2.51-.514a.212.212 0 0 1-.12-.07Zm6.709-4.017-6.052 3.823 1.965.401 5.325-3.972-1.238-.252ZM57.846 20.792a.17.17 0 0 1-.033-.06.173.173 0 0 1 .082-.197l5.171-3.15a.234.234 0 0 1 .136-.031l1.344.1c.082.006.15.05.178.12a.168.168 0 0 1-.053.193l-3.877 3.25a.224.224 0 0 1-.16.05l-2.639-.201a.215.215 0 0 1-.149-.074Zm5.396-3.07-4.64 2.825 1.974.15 3.477-2.914-.811-.061ZM50.982 83.321a.164.164 0 0 1-.021-.184.213.213 0 0 1 .206-.105l4.874.371c.056.004.109.029.144.069l3.365 3.719c.04.063.06.135.02.2a.215.215 0 0 1-.2.094l-3.831-.294a.22.22 0 0 1-.127-.05l-4.407-3.798a.178.178 0 0 1-.023-.022Zm4.935.438-4.211-.32 3.942 3.395 3.277.252-3.008-3.327ZM106.772 62.428a.167.167 0 0 1-.04-.118l.453-7.224a.182.182 0 0 1 .129-.158l3.396-1.218a.23.23 0 0 1 .198.02c.059.038.09.098.086.16l-.52 7.25a.184.184 0 0 1-.128.156l-3.329 1.193a.23.23 0 0 1-.198-.02.215.215 0 0 1-.047-.04Zm.819-7.206-.427 6.822 2.905-1.042.491-6.845-2.969 1.065ZM72.259 17.562a.164.164 0 0 1-.03-.164.202.202 0 0 1 .169-.124l1.388-.163c.05-.006.1.004.14.028l5.048 2.918a.168.168 0 0 1 .088.192.198.198 0 0 1-.174.14l-2.718.323a.224.224 0 0 1-.17-.048l-3.716-3.078a.157.157 0 0 1-.025-.024Zm1.506-.082-.882.104 3.33 2.755 2.071-.246-4.52-2.613ZM38.7 76.979c-.007-.007-.01-.013-.016-.02l-3.775-6.083a.165.165 0 0 1 .017-.197.223.223 0 0 1 .211-.067l4.177.852a.21.21 0 0 1 .139.097l3.358 5.997a.164.164 0 0 1-.024.194.223.223 0 0 1-.21.064l-3.758-.768a.21.21 0 0 1-.12-.07Zm-3.207-5.92 3.51 5.654 3.243.662-3.122-5.576-3.63-.74ZM81.022 19.929a.165.165 0 0 1-.035-.145.193.193 0 0 1 .148-.139l1.852-.434a.231.231 0 0 1 .166.023l6.593 3.806a.171.171 0 0 1 .091.182.192.192 0 0 1-.15.146L87.001 24a.23.23 0 0 1-.182-.033l-5.76-4.003a.203.203 0 0 1-.038-.035Zm1.982-.345-1.363.32 5.354 3.721 2.138-.503-6.129-3.538ZM100.165 34.158h-.001l-4.86-5.908a.168.168 0 0 1-.031-.156.193.193 0 0 1 .121-.118l2.401-.861a.227.227 0 0 1 .24.053l5.28 5.755a.164.164 0 0 1 .039.16.19.19 0 0 1-.122.122l-2.822 1.014a.226.226 0 0 1-.245-.06Zm-4.37-5.933 4.609 5.603 2.414-.867-5.01-5.458-2.013.722ZM81.712 86.895l-.007-.01a.164.164 0 0 1-.001-.195l2.773-3.856a.21.21 0 0 1 .147-.083l5.022-.6a.213.213 0 0 1 .21.093.165.165 0 0 1-.024.205l-3.848 3.987a.216.216 0 0 1-.13.063l-3.948.469a.22.22 0 0 1-.194-.073Zm3.063-3.795-2.484 3.455 3.429-.408 3.447-3.572-4.392.525Z"/>
  <path fill="#C1C0C0" d="M60.484 20.994a.167.167 0 0 1 .024-.24l3.878-3.25a.22.22 0 0 1 .151-.05l1.504.058c.075.003.143.036.175.098a.163.163 0 0 1-.01.182l-2.433 3.306a.218.218 0 0 1-.183.082l-2.948-.112a.217.217 0 0 1-.158-.074Zm4.124-3.173-3.462 2.902 2.343.09 2.173-2.952-1.054-.04ZM107.225 55.204a.177.177 0 0 1-.039-.086l-.983-7.308c-.01-.082.041-.159.128-.19l3.327-1.192a.23.23 0 0 1 .182.01.175.175 0 0 1 .101.136l1.052 7.282c.012.08-.041.16-.127.19l-3.396 1.219a.233.233 0 0 1-.184-.012.2.2 0 0 1-.061-.049Zm-.592-7.299.932 6.932 2.997-1.075-.997-6.908-2.932 1.051Z"/>
  <path fill="#C1C0C0" d="M106.243 47.897a.16.16 0 0 1-.032-.057l-2.384-7.106c-.03-.09.022-.185.121-.22l3.134-1.123a.227.227 0 0 1 .165.004c.052.02.093.062.111.109l2.576 7.036c.033.09-.019.188-.119.224l-3.327 1.193a.233.233 0 0 1-.168-.004.211.211 0 0 1-.077-.056Zm-1.966-7.108 2.266 6.755 2.938-1.053-2.449-6.69-2.755.988Z"/>
  <path fill="#C1C0C0" d="M103.859 40.79a.16.16 0 0 1-.019-.028l-3.694-6.632a.162.162 0 0 1-.008-.144.196.196 0 0 1 .116-.104l2.821-1.013a.23.23 0 0 1 .261.082l4.006 6.522c.028.045.033.1.013.148a.195.195 0 0 1-.117.106l-3.134 1.124a.223.223 0 0 1-.245-.06Zm-3.244-6.644 3.511 6.303 2.743-.982-3.809-6.2-2.445.879ZM72.973 20.887a.088.088 0 0 1-.01-.012l-2.244-3.198a.163.163 0 0 1-.01-.176.207.207 0 0 1 .166-.1l1.53-.128a.221.221 0 0 1 .162.05l3.717 3.076a.162.162 0 0 1 .054.191.204.204 0 0 1-.176.123l-3.003.248a.22.22 0 0 1-.186-.073Zm-1.727-3.151 2.002 2.852 2.419-.2-3.315-2.744-1.106.092ZM42.458 77.747a.164.164 0 0 1-.012-.2.216.216 0 0 1 .208-.088l4.838.614c.059.007.11.033.145.08l3.685 4.96a.163.163 0 0 1 .001.198.219.219 0 0 1-.203.083l-4.115-.521a.213.213 0 0 1-.135-.07l-4.41-5.054-.002-.002Zm4.883.675-4.243-.539 4.049 4.64 3.578.453-3.384-4.554ZM63.432 21.107a.163.163 0 0 1-.007-.207l2.433-3.306a.218.218 0 0 1 .176-.083l1.6.01c.064.001.123.027.162.07.029.025.053.1.038.155l-.888 3.316c-.022.083-.106.14-.203.14l-3.145-.021a.218.218 0 0 1-.166-.075Zm2.713-3.231-2.167 2.943 2.603.018.791-2.953-1.227-.008Z"/>
  <path fill="#C1C0C0" d="M69.8 21.054a.172.172 0 0 1-.037-.075l-.688-3.279a.165.165 0 0 1 .04-.145.214.214 0 0 1 .15-.07l1.618-.084c.076-.005.154.025.188.086l2.245 3.198a.164.164 0 0 1 .007.179.21.21 0 0 1-.171.097l-3.173.167a.22.22 0 0 1-.18-.074Zm-.276-3.217.612 2.918 2.645-.139-1.997-2.845-1.26.066Z"/>
  <path fill="#C1C0C0" d="M66.578 21.128a.163.163 0 0 1-.034-.15l.888-3.316c.022-.08.102-.138.196-.14l1.644-.037c.103-.001.191.062.21.15l.688 3.278a.166.166 0 0 1-.043.148.22.22 0 0 1-.155.067l-3.222.074a.222.222 0 0 1-.166-.068l-.006-.006Zm1.22-3.245-.79 2.949 2.71-.063-.611-2.916-1.309.03ZM97.654 76.483a.164.164 0 0 1-.025-.175l2.778-6.139a.204.204 0 0 1 .139-.108l4.464-1.048a.223.223 0 0 1 .211.059.16.16 0 0 1 .031.192l-3.223 6.243a.2.2 0 0 1-.135.1l-4.02.944a.227.227 0 0 1-.207-.055l-.013-.013Zm3.1-6.094-2.588 5.717 3.527-.828 3.001-5.813-3.94.924ZM55.856 83.693a.164.164 0 0 1-.017-.191.213.213 0 0 1 .193-.099l5.45.209c.073.002.142.037.174.098l2.196 3.672a.162.162 0 0 1-.008.181.216.216 0 0 1-.184.085l-4.281-.162a.22.22 0 0 1-.154-.069l-3.364-3.719-.005-.005Zm5.49.278-4.878-.187 3.022 3.342 3.828.144-1.973-3.3ZM41.753 29.477a.166.166 0 0 1 .016-.234l5.637-5.215a.229.229 0 0 1 .197-.051l2.51.513c.07.014.128.06.149.119.023.06.01.124-.035.174l-4.954 5.351a.223.223 0 0 1-.207.062l-3.193-.65a.211.211 0 0 1-.12-.07Zm5.871-5.122-5.305 4.908 2.715.553 4.662-5.037-2.072-.424Z"/>
  <path fill="#C1C0C0" d="M49.9 24.775a.173.173 0 0 1-.033-.057.169.169 0 0 1 .065-.189l5.72-4.266a.225.225 0 0 1 .163-.042l2.227.283c.076.01.142.055.166.121a.166.166 0 0 1-.045.184l-4.713 4.392a.223.223 0 0 1-.18.055l-3.233-.408a.216.216 0 0 1-.137-.073Zm5.949-4.182-5.298 3.952 2.671.337 4.367-4.068-1.74-.22ZM77.351 87.258a.164.164 0 0 1-.027-.17l1.582-3.761a.204.204 0 0 1 .175-.118l5.552-.46c.078-.006.157.018.195.087a.163.163 0 0 1 0 .193l-2.774 3.856a.21.21 0 0 1-.155.084l-4.361.363a.222.222 0 0 1-.184-.07l-.003-.004Zm1.898-3.697-1.423 3.38 3.932-.326 2.494-3.468-5.003.414ZM89.508 82.44a.166.166 0 0 1-.017-.194l3.091-5.115a.21.21 0 0 1 .145-.094l5.055-.84a.218.218 0 0 1 .21.077c.047.06.048.14.003.2l-3.844 5.243a.213.213 0 0 1-.135.08l-4.303.714a.224.224 0 0 1-.205-.072Zm3.394-5.06-2.843 4.703 3.792-.63 3.535-4.82-4.484.746ZM34.924 70.897a.172.172 0 0 1-.03-.053l-2.436-6.768a.165.165 0 0 1 .045-.178.226.226 0 0 1 .199-.054l4.435.902c.073.016.13.064.152.128l2.177 6.718a.167.167 0 0 1-.049.175.229.229 0 0 1-.197.052l-4.176-.852a.212.212 0 0 1-.12-.07ZM32.96 64.27l2.29 6.366 3.72.759-2.046-6.319-3.964-.806ZM78.694 20.316a.166.166 0 0 1-.032-.162.203.203 0 0 1 .16-.125l2.328-.387a.23.23 0 0 1 .167.037l5.76 4.003c.063.046.092.117.073.186a.2.2 0 0 1-.163.135l-3.38.562a.23.23 0 0 1-.186-.05l-4.708-4.178a.311.311 0 0 1-.02-.02Zm2.441-.3-1.854.308 4.357 3.865 2.826-.47-5.329-3.704ZM63.502 87.573a.155.155 0 0 1-.016-.023l-2.197-3.673a.162.162 0 0 1 .006-.179.215.215 0 0 1 .178-.087l5.812.038c.097 0 .178.059.201.142l.951 3.665c.013.054 0 .111-.04.154a.222.222 0 0 1-.163.069l-4.567-.031a.218.218 0 0 1-.165-.075Zm-1.686-3.595 1.978 3.306 4.18.028-.856-3.3-5.302-.034Z"/>
  <path fill="#C1C0C0" d="M86.782 23.932a.165.165 0 0 1-.032-.16.198.198 0 0 1 .145-.124l2.684-.631c.07-.017.145 0 .197.044l5.84 4.952c.056.05.076.113.056.177a.193.193 0 0 1-.146.13l-3.416.8a.225.225 0 0 1-.21-.055l-5.107-5.12a.117.117 0 0 1-.011-.013Zm2.791-.537-2.25.53 4.804 4.815 2.938-.689-5.492-4.656ZM72.745 87.498a.168.168 0 0 1-.04-.123l.326-3.694c.008-.09.09-.161.194-.167l5.863-.305a.22.22 0 0 1 .178.073c.041.05.052.114.028.172l-1.582 3.76a.203.203 0 0 1-.182.118l-4.606.24a.222.222 0 0 1-.16-.054l-.02-.02Zm.685-3.63-.294 3.328 4.235-.22 1.425-3.388-5.366.28Z"/>
  <path fill="#C1C0C0" d="M68.069 87.604a.177.177 0 0 1-.036-.067l-.95-3.666a.167.167 0 0 1 .038-.151.22.22 0 0 1 .158-.07l5.953-.136a.22.22 0 0 1 .155.057.17.17 0 0 1 .057.14l-.326 3.693c-.008.093-.096.165-.201.168l-4.676.106a.218.218 0 0 1-.172-.074Zm-.527-3.596.858 3.303 4.32-.1.293-3.328-5.471.125ZM37.19 35.597a.166.166 0 0 1-.006-.207l4.562-6.12a.22.22 0 0 1 .22-.079l3.194.65a.216.216 0 0 1 .142.104.164.164 0 0 1-.009.163l-3.996 6.238a.22.22 0 0 1-.227.088l-3.76-.767a.211.211 0 0 1-.12-.07Zm4.824-6.023-4.321 5.797 3.32.678 3.783-5.908-2.782-.566ZM100.433 70.344a.163.163 0 0 1-.035-.144l1.6-6.801a.193.193 0 0 1 .149-.139l4.738-1.115c.07-.017.146 0 .198.045.049.042.074.11.057.173l-1.875 6.87a.195.195 0 0 1-.147.132l-4.464 1.047a.225.225 0 0 1-.221-.068Zm1.945-6.761-1.507 6.401 4.02-.943 1.765-6.466-4.278 1.008ZM32.489 64.129a.17.17 0 0 1-.04-.086l-1-7.191a.171.171 0 0 1 .067-.157c.05-.04.12-.056.185-.042l4.522.922c.083.017.149.081.158.156l.915 7.172a.172.172 0 0 1-.068.157.225.225 0 0 1-.184.04l-4.436-.901a.212.212 0 0 1-.12-.07Zm-.593-7.063.947 6.806 4.009.816-.865-6.788-4.091-.834ZM53.133 25.184a.164.164 0 0 1 .016-.232l4.713-4.392a.222.222 0 0 1 .168-.057l2.639.202c.074.005.14.044.17.104a.163.163 0 0 1-.017.18l-3.52 4.485a.22.22 0 0 1-.188.078l-3.832-.295a.215.215 0 0 1-.15-.073Zm4.962-4.31-4.352 4.053 3.286.253 3.25-4.14-2.184-.167ZM50.983 83.321l-.007-.008-3.686-4.96a.165.165 0 0 1-.004-.193.215.215 0 0 1 .195-.088l5.733.438a.22.22 0 0 1 .168.1l2.826 4.893a.163.163 0 0 1-.013.183.216.216 0 0 1-.19.08l-4.873-.372a.215.215 0 0 1-.15-.073Zm-3.113-4.854 3.398 4.573 4.402.335-2.606-4.511-5.194-.397Z"/>
  <path fill="#C1C0C0" d="M33.884 42.391a.165.165 0 0 1-.024-.18l3.307-6.793c.04-.081.139-.125.237-.105l3.76.767a.218.218 0 0 1 .135.09.163.163 0 0 1 .012.15L38.42 43.2c-.036.085-.14.135-.241.114l-4.176-.852a.21.21 0 0 1-.12-.07Zm3.595-6.69-3.141 6.455 3.758.766 2.745-6.535-3.362-.685ZM42.458 77.747a.188.188 0 0 1-.02-.028l-3.357-5.997a.167.167 0 0 1 .018-.188.222.222 0 0 1 .197-.073l5.378.681c.072.01.134.05.162.11l2.818 5.931c.028.06.018.13-.027.182a.223.223 0 0 1-.193.069l-4.838-.615a.215.215 0 0 1-.138-.072Zm-2.832-5.876 3.137 5.602 4.369.554-2.633-5.54-4.873-.616ZM31.488 56.938a.167.167 0 0 1-.04-.118l.47-7.342a.176.176 0 0 1 .082-.135.232.232 0 0 1 .172-.032l4.435.904c.095.02.165.098.16.186l-.384 7.36a.178.178 0 0 1-.082.136.23.23 0 0 1-.172.032l-4.522-.922a.214.214 0 0 1-.12-.07Zm.83-7.223-.447 6.973 4.109.837.366-6.99-4.028-.82Z"/>
  <path fill="#C1C0C0" d="m31.958 49.597-.009-.012a.16.16 0 0 1-.026-.138l1.926-7.205c.026-.098.137-.158.248-.136l4.177.852c.108.024.178.118.156.214l-1.667 7.257a.188.188 0 0 1-.091.117.233.233 0 0 1-.16.024l-4.434-.904a.213.213 0 0 1-.12-.07Zm2.247-7.095-1.831 6.85 4.025.821 1.585-6.9-3.78-.771ZM79.455 24.963l-.002-.003-3.48-4.323a.165.165 0 0 1-.02-.178.204.204 0 0 1 .162-.108l2.718-.323a.224.224 0 0 1 .174.052l4.709 4.178c.056.054.073.122.049.187a.201.201 0 0 1-.169.121l-3.946.469a.22.22 0 0 1-.195-.072Zm-2.946-4.291 3.21 3.988 3.41-.406-4.343-3.853-2.277.27ZM96.147 35.101a.076.076 0 0 1-.01-.012l-4.257-6.048a.162.162 0 0 1-.016-.163.2.2 0 0 1 .138-.109l3.417-.8a.224.224 0 0 1 .22.067l.001.002 4.86 5.906c.039.049.05.111.028.168a.202.202 0 0 1-.142.114l-4.019.943a.223.223 0 0 1-.22-.068Zm-3.768-6.044 4.03 5.726 3.58-.84-4.6-5.59-3.01.704ZM84.486 83.04a.164.164 0 0 1-.026-.175l2.206-5.01a.204.204 0 0 1 .165-.113l5.907-.706a.225.225 0 0 1 .198.077.165.165 0 0 1 .013.19l-3.091 5.115a.21.21 0 0 1-.155.094l-5.023.6a.222.222 0 0 1-.19-.068l-.004-.005Zm2.522-4.952-2.036 4.622 4.569-.546 2.853-4.719-5.386.643ZM44.946 30.127a.166.166 0 0 1 .006-.223l4.954-5.352a.222.222 0 0 1 .189-.065l3.233.409c.07.008.13.047.16.105a.162.162 0 0 1-.016.174l-4.07 5.467a.218.218 0 0 1-.202.08l-4.117-.523a.217.217 0 0 1-.137-.072Zm5.207-5.264-4.65 5.022 3.626.461 3.82-5.13-2.796-.353ZM102.034 63.544a.167.167 0 0 1-.04-.116l.358-7.206c.004-.08.066-.147.153-.167l4.833-1.134a.225.225 0 0 1 .184.035.165.165 0 0 1 .076.15l-.453 7.225c-.005.078-.067.145-.153.165l-4.738 1.115a.23.23 0 0 1-.183-.033.163.163 0 0 1-.037-.035Zm.725-7.172-.339 6.824 4.321-1.017.428-6.842-4.41 1.035Z"/>
  <path fill="#C1C0C0" d="M92.599 77.324a.164.164 0 0 1-.03-.163l2.212-6.046a.202.202 0 0 1 .159-.123l5.621-.934a.228.228 0 0 1 .199.063c.042.044.06.121.032.183l-2.779 6.138a.204.204 0 0 1-.153.112l-5.056.842a.224.224 0 0 1-.194-.06l-.011-.012Zm2.538-5.994-2.068 5.65 4.602-.765 2.598-5.738-5.132.853ZM56.965 25.478a.165.165 0 0 1-.004-.211l3.52-4.484a.217.217 0 0 1 .179-.079l2.948.113c.067.003.136.034.165.084.037.051.043.114.017.169l-2.185 4.537a.21.21 0 0 1-.2.11l-4.283-.165a.217.217 0 0 1-.157-.074Zm3.791-4.406-3.242 4.13 3.765.147 2.013-4.18-2.536-.097ZM99.392 41.84a.171.171 0 0 1-.024-.037l-3.245-6.739a.163.163 0 0 1 .005-.15.202.202 0 0 1 .132-.096l4.018-.943c.096-.022.2.018.24.096l3.693 6.632a.16.16 0 0 1 .003.155.2.2 0 0 1-.135.1l-4.467 1.05a.222.222 0 0 1-.22-.069Zm-2.795-6.725 3.082 6.4 4.05-.952-3.508-6.298-3.624.85ZM102.392 56.339a.165.165 0 0 1-.038-.09l-.891-7.328c-.011-.09.054-.172.152-.195l4.741-1.113a.233.233 0 0 1 .17.025.19.19 0 0 1 .089.13l.983 7.307c.011.09-.053.174-.152.198l-4.833 1.133a.23.23 0 0 1-.171-.026.21.21 0 0 1-.05-.041Zm-.498-7.302.845 6.963 4.426-1.038-.933-6.943-4.338 1.018Z"/>
  <path fill="#C1C0C0" d="M101.502 49.01a.185.185 0 0 1-.034-.063l-2.11-7.17c-.028-.096.037-.195.147-.221l4.467-1.05c.108-.026.222.032.252.125l2.384 7.106a.164.164 0 0 1-.018.141.21.21 0 0 1-.127.087l-4.741 1.112a.232.232 0 0 1-.158-.019.197.197 0 0 1-.062-.049Zm-1.692-7.15 2.007 6.818 4.334-1.017-2.267-6.757-4.074.957ZM75.095 25.325a.177.177 0 0 1-.024-.038l-2.123-4.437a.162.162 0 0 1 .014-.164.21.21 0 0 1 .158-.088l3.003-.248c.073-.006.12.02.188.076l3.48 4.324c.042.053.05.122.019.181a.207.207 0 0 1-.168.105l-4.36.362a.22.22 0 0 1-.187-.073Zm-1.655-4.387 1.953 4.085 3.853-.32-3.203-3.98-2.603.215ZM87.587 29.77l-.003-.005-4.186-5.275a.163.163 0 0 1-.021-.173.206.206 0 0 1 .153-.11l3.38-.562a.225.225 0 0 1 .193.06l5.109 5.12a.158.158 0 0 1 .039.18.2.2 0 0 1-.156.12l-4.302.716a.223.223 0 0 1-.206-.072Zm-3.666-5.258 3.926 4.949 3.814-.635-4.79-4.803-2.95.49ZM61.247 25.644l-.006-.008a.165.165 0 0 1-.018-.171l2.185-4.538a.212.212 0 0 1 .192-.11l3.146.02c.06.002.117.024.156.065.044.03.056.092.048.145l-.767 4.544c-.015.09-.104.155-.207.155l-4.564-.028a.218.218 0 0 1-.165-.074Zm2.489-4.463-2.01 4.175 4.074.025.705-4.181-2.77-.019Z"/>
  <path fill="#C1C0C0" d="M70.488 25.564a.168.168 0 0 1-.038-.084l-.689-4.51a.164.164 0 0 1 .046-.14.216.216 0 0 1 .147-.065l3.173-.167a.211.211 0 0 1 .203.111l2.123 4.438a.163.163 0 0 1-.016.166.21.21 0 0 1-.163.086l-4.606.239a.218.218 0 0 1-.18-.074Zm-.287-4.448.634 4.149 4.122-.215-1.951-4.08-2.805.146Z"/>
  <path fill="#C1C0C0" d="M65.81 25.672a.168.168 0 0 1-.037-.135l.767-4.544c.014-.087.098-.152.199-.155l3.221-.074c.106-.002.197.066.21.158l.69 4.51a.164.164 0 0 1-.047.142.22.22 0 0 1-.153.064l-4.677.108a.222.222 0 0 1-.16-.061l-.012-.013Zm1.114-4.474-.706 4.179 4.201-.098-.633-4.146-2.862.065ZM55.856 83.692a.184.184 0 0 1-.018-.025l-2.826-4.894a.165.165 0 0 1 .01-.18.218.218 0 0 1 .183-.084l6.408.246c.085.003.16.049.187.124l1.869 4.856c.021.057.01.12-.03.168a.221.221 0 0 1-.175.072l-5.45-.209a.216.216 0 0 1-.158-.074Zm-2.314-4.805 2.61 4.52 5.027.194-1.726-4.488-5.911-.226ZM39.1 71.75a.178.178 0 0 1-.032-.06l-2.177-6.717a.166.166 0 0 1 .043-.17.224.224 0 0 1 .185-.06l5.706.726a.2.2 0 0 1 .172.137l1.85 6.674a.17.17 0 0 1-.048.165.225.225 0 0 1-.183.058l-5.378-.681a.216.216 0 0 1-.138-.073Zm-1.724-6.606 2.053 6.334 4.943.626-1.744-6.292-5.252-.668ZM78.933 83.498a.165.165 0 0 1-.035-.147l1.231-4.927c.02-.077.094-.134.183-.141l6.527-.542a.22.22 0 0 1 .185.071c.046.063.054.117.027.176l-2.206 5.01a.205.205 0 0 1-.174.115l-5.552.459a.224.224 0 0 1-.186-.074Zm1.568-4.866-1.138 4.554 5.142-.425 2.04-4.63-6.044.501ZM40.95 36.365a.165.165 0 0 1-.014-.198l3.996-6.238a.217.217 0 0 1 .21-.09l4.117.523a.22.22 0 0 1 .152.094c.032.05.034.11.007.162l-3.273 6.328a.215.215 0 0 1-.217.105l-4.84-.614a.213.213 0 0 1-.138-.072Zm4.274-6.148-3.778 5.898 4.386.556 3.096-5.983-3.704-.471Z"/>
  <path fill="#C1C0C0" d="M61.306 83.901a.174.174 0 0 1-.03-.05l-1.868-4.856a.166.166 0 0 1 .028-.166.218.218 0 0 1 .17-.075l6.835.044c.1 0 .189.067.203.155l.845 4.851a.167.167 0 0 1-.048.147.22.22 0 0 1-.158.063l-5.812-.038a.218.218 0 0 1-.165-.075Zm-1.413-4.78 1.729 4.492 5.42.035-.78-4.487-6.37-.04ZM49.063 30.65a.138.138 0 0 1-.019-.028.162.162 0 0 1 .012-.179l4.07-5.466a.216.216 0 0 1 .191-.082l3.832.294a.206.206 0 0 1 .161.091.163.163 0 0 1 .008.17l-3.028 5.544a.213.213 0 0 1-.204.102l-4.874-.372a.217.217 0 0 1-.149-.074Zm4.342-5.383-3.812 5.121 4.385.334 2.837-5.193-3.41-.262ZM73.07 83.804a.167.167 0 0 1-.04-.115l.199-4.875c.004-.094.088-.17.194-.175l6.896-.357a.222.222 0 0 1 .17.063c.054.049.058.102.045.157l-1.232 4.927c-.02.08-.097.138-.19.143l-5.862.305a.226.226 0 0 1-.18-.073Zm.565-4.812-.183 4.51 5.48-.285 1.139-4.558-6.436.333Z"/>
  <path fill="#C1C0C0" d="M67.118 83.94a.17.17 0 0 1-.038-.081l-.845-4.852a.168.168 0 0 1 .045-.144.217.217 0 0 1 .154-.065l6.996-.16a.225.225 0 0 1 .153.054c.04.04.061.085.06.135l-.199 4.876c-.003.096-.092.172-.201.175l-5.953.135a.218.218 0 0 1-.172-.074Zm-.438-4.784.781 4.49 5.577-.128.183-4.51-6.541.148ZM47.297 78.361a.185.185 0 0 1-.025-.037l-2.817-5.931a.164.164 0 0 1 .023-.178.218.218 0 0 1 .185-.074l6.368.488a.204.204 0 0 1 .18.125l2.182 5.88a.165.165 0 0 1-.034.17.22.22 0 0 1-.18.068l-5.733-.437a.214.214 0 0 1-.15-.074Zm-2.329-5.832 2.638 5.553 5.297.404-2.044-5.505-5.891-.452ZM94.812 71.279a.165.165 0 0 1-.038-.137l1.253-6.745a.196.196 0 0 1 .166-.15l5.969-.99a.23.23 0 0 1 .186.051c.05.046.069.106.055.165l-1.6 6.8a.197.197 0 0 1-.164.143l-5.622.934a.226.226 0 0 1-.205-.071Zm1.6-6.698-1.182 6.363 5.196-.863 1.509-6.416-5.523.916ZM91.09 35.943a.195.195 0 0 1-.02-.027l-3.5-6.173a.163.163 0 0 1 0-.163.206.206 0 0 1 .146-.098l4.301-.716c.085-.013.178.02.215.083l4.257 6.049a.163.163 0 0 1 .014.169.202.202 0 0 1-.15.106l-5.058.841a.224.224 0 0 1-.206-.071Zm-3.028-6.148 3.31 5.835 4.607-.766-4.024-5.717-3.893.648Z"/>
  <path fill="#C1C0C0" d="M82.566 30.369a.176.176 0 0 1-.018-.026l-3.11-5.406a.164.164 0 0 1 0-.167.207.207 0 0 1 .156-.095l3.947-.47c.077-.008.153.011.198.077l4.185 5.276c.041.051.049.118.02.177a.202.202 0 0 1-.162.107l-5.022.6a.221.221 0 0 1-.194-.073Zm-2.629-5.368 2.913 5.062 4.54-.542-3.918-4.94-3.534.42ZM36.923 65.031a.172.172 0 0 1-.038-.087l-.915-7.172a.168.168 0 0 1 .062-.151.225.225 0 0 1 .173-.05l5.818.736c.095.012.168.078.177.163l.802 7.162a.168.168 0 0 1-.063.148.226.226 0 0 1-.172.05l-5.706-.726a.213.213 0 0 1-.138-.073Zm-.512-7.066.867 6.798 5.286.672-.76-6.787-5.393-.683ZM86.692 78.03a.162.162 0 0 1-.035-.15l1.557-5.966a.198.198 0 0 1 .173-.14l6.563-.784a.226.226 0 0 1 .187.064c.057.055.06.113.039.173l-2.213 6.045a.202.202 0 0 1-.17.124l-5.907.706a.226.226 0 0 1-.194-.073Zm1.893-5.912-1.457 5.588 5.48-.655 2.073-5.66-6.096.727ZM38.06 43.243a.162.162 0 0 1-.027-.171l2.89-6.878c.034-.08.127-.13.223-.117l4.84.613c.06.007.12.033.145.083.032.044.041.099.025.15l-2.353 6.947c-.03.087-.126.14-.227.128l-5.378-.682a.213.213 0 0 1-.138-.073Zm3.194-6.785-2.743 6.53 4.946.627 2.233-6.595-4.436-.562Z"/>
  <path fill="#C1C0C0" d="M36.009 57.86a.17.17 0 0 1-.04-.117l.383-7.36a.18.18 0 0 1 .076-.132.227.227 0 0 1 .16-.04l5.71.727c.105.014.182.094.177.186l-.275 7.37a.173.173 0 0 1-.072.133.232.232 0 0 1-.163.04l-5.819-.735a.216.216 0 0 1-.137-.073Zm.747-7.26-.365 6.995 5.404.684.26-7.004-5.3-.674Z"/>
  <path fill="#C1C0C0" d="M36.393 50.5a.176.176 0 0 1-.036-.144l1.667-7.257c.022-.095.124-.157.232-.144l5.377.683a.214.214 0 0 1 .138.072c.033.04.046.09.038.137l-1.336 7.3c-.018.099-.122.166-.234.151l-5.708-.726a.213.213 0 0 1-.138-.072Zm1.998-7.16-1.585 6.9 5.29.673 1.27-6.94-4.975-.633ZM53.936 31.022a.165.165 0 0 1-.02-.187l3.028-5.544a.215.215 0 0 1 .196-.102l4.282.165c.063.002.114.013.16.076a.164.164 0 0 1 .03.158l-1.859 5.589c-.027.08-.112.134-.207.13l-5.452-.21a.218.218 0 0 1-.158-.075Zm3.322-5.464-2.833 5.187 4.977.191 1.738-5.229-3.882-.15ZM96.065 64.534a.17.17 0 0 1-.04-.114l.245-7.181c.003-.085.073-.158.169-.174l6.081-1.014a.234.234 0 0 1 .175.042c.047.037.073.09.071.145l-.359 7.206c-.003.084-.074.155-.168.17l-5.969.991a.231.231 0 0 1-.205-.071Zm.614-7.138-.233 6.81 5.555-.923.34-6.831-5.662.945ZM93.772 42.773a.175.175 0 0 1-.03-.049l-2.682-6.83a.164.164 0 0 1 .016-.15.21.21 0 0 1 .14-.088l5.059-.842c.096-.015.192.033.229.108l3.245 6.739a.16.16 0 0 1-.008.157.208.208 0 0 1-.144.093l-5.62.933a.222.222 0 0 1-.205-.071Zm-2.243-6.798 2.547 6.483 5.192-.863-3.08-6.395-4.659.775ZM77.016 30.83a.183.183 0 0 1-.032-.055l-1.92-5.505a.165.165 0 0 1 .026-.154.211.211 0 0 1 .152-.08l4.36-.362a.21.21 0 0 1 .205.099l3.11 5.406c.03.054.03.118-.003.17a.209.209 0 0 1-.162.093l-5.55.46a.22.22 0 0 1-.186-.073Zm-1.482-5.453 1.797 5.15 5.08-.422-2.91-5.058-3.967.33Z"/>
  <path fill="#C1C0C0" d="M96.31 57.352a.173.173 0 0 1-.039-.09l-.776-7.351c-.01-.094.062-.178.167-.196l5.968-.993a.231.231 0 0 1 .162.033c.048.03.077.077.082.127l.89 7.33c.012.094-.061.18-.166.198l-6.082 1.014a.233.233 0 0 1-.163-.034.191.191 0 0 1-.042-.038Zm-.386-7.31.738 6.986 5.671-.945-.846-6.966-5.563.925Z"/>
  <path fill="#C1C0C0" d="M95.534 50.002a.172.172 0 0 1-.036-.07l-1.762-7.229a.166.166 0 0 1 .03-.14.21.21 0 0 1 .134-.077l5.62-.933c.107-.017.212.04.239.134l2.11 7.17c.015.048.005.099-.025.142a.21.21 0 0 1-.137.082l-5.968.992a.224.224 0 0 1-.205-.071Zm-1.349-7.192 1.676 6.872 5.552-.924-2.006-6.816-5.222.868ZM53.03 78.799a.183.183 0 0 1-.03-.052l-2.183-5.88a.162.162 0 0 1 .032-.167.217.217 0 0 1 .173-.072l7.119.272c.093.005.175.065.193.143l1.472 5.855a.164.164 0 0 1-.043.156.221.221 0 0 1-.168.065l-6.407-.246a.217.217 0 0 1-.158-.074Zm-1.727-5.796 2.045 5.512 5.995.23-1.378-5.487-6.662-.255ZM45.79 36.978l-.012-.016a.164.164 0 0 1-.01-.167l3.274-6.328a.211.211 0 0 1 .206-.106l4.873.372a.255.255 0 0 1 .155.081.165.165 0 0 1 .023.158l-2.413 6.394c-.03.08-.119.131-.214.124l-5.732-.438a.215.215 0 0 1-.15-.074Zm3.568-6.243-3.091 5.977 5.278.403 2.28-6.039-4.467-.341Z"/>
  <path fill="#C1C0C0" d="M44.478 72.43a.18.18 0 0 1-.034-.065l-1.85-6.674a.165.165 0 0 1 .045-.16.22.22 0 0 1 .174-.063l6.764.516c.093.008.17.07.185.147l1.455 6.644a.164.164 0 0 1-.05.156.22.22 0 0 1-.171.06l-6.368-.488a.215.215 0 0 1-.15-.073Zm-1.413-6.578 1.746 6.3 5.948.456-1.373-6.273-6.32-.483ZM59.389 31.233a.166.166 0 0 1-.032-.16l1.858-5.589c.027-.077.107-.13.2-.13l4.564.028c.059 0 .114.022.152.06.045.043.058.09.052.14l-.613 5.596c-.01.093-.1.165-.207.165l-5.81-.036a.22.22 0 0 1-.164-.074Zm2.18-5.514-1.739 5.226 5.347.032.573-5.232-4.181-.026ZM71.15 31.134a.172.172 0 0 1-.039-.09l-.662-5.57a.168.168 0 0 1 .048-.136.217.217 0 0 1 .146-.063l4.606-.24a.21.21 0 0 1 .21.129l1.922 5.505a.162.162 0 0 1-.029.156.213.213 0 0 1-.157.078l-5.865.304a.218.218 0 0 1-.18-.073Zm-.267-5.507.62 5.207 5.405-.28-1.796-5.147-4.23.22Z"/>
  <path fill="#C1C0C0" d="M65.198 31.268a.167.167 0 0 1-.04-.126l.614-5.596c.01-.09.095-.162.2-.164l4.678-.108c.108-.001.198.07.211.164l.662 5.57a.17.17 0 0 1-.05.138.217.217 0 0 1-.15.062l-5.953.134a.22.22 0 0 1-.172-.074Zm.968-5.526-.573 5.231 5.495-.124-.62-5.207-4.302.1ZM80.165 78.571a.164.164 0 0 1-.038-.13l.833-5.91c.011-.083.089-.15.186-.158l7.25-.6a.224.224 0 0 1 .175.062c.048.038.061.103.045.16l-1.556 5.968c-.02.076-.093.132-.181.14l-6.527.541a.223.223 0 0 1-.187-.073Zm1.185-5.849-.78 5.538 6.12-.507 1.46-5.593-6.8.562ZM85.181 36.645a.174.174 0 0 1-.027-.045l-2.616-6.277a.16.16 0 0 1 .017-.156.205.205 0 0 1 .15-.086l5.021-.6c.088-.01.175.03.214.1l3.501 6.173a.162.162 0 0 1-.003.166.204.204 0 0 1-.154.095l-5.908.703a.219.219 0 0 1-.195-.073Zm-2.166-6.234 2.47 5.926 5.457-.648-3.306-5.83-4.621.552Z"/>
  <path fill="#C1C0C0" d="M88.249 72.063a.163.163 0 0 1-.039-.129l.851-6.696c.01-.082.084-.149.177-.16l6.966-.833a.228.228 0 0 1 .176.054c.044.044.067.1.056.156L95.183 71.2c-.015.08-.086.14-.176.152l-6.563.784a.228.228 0 0 1-.195-.073Zm1.205-6.644-.804 6.325 6.15-.735 1.182-6.37-6.528.78ZM59.437 79.045a.166.166 0 0 1-.035-.07l-1.472-5.854a.165.165 0 0 1 .041-.153.22.22 0 0 1 .162-.068l7.596.049c.104.001.193.072.204.163l.712 5.85a.168.168 0 0 1-.052.14.223.223 0 0 1-.155.06l-6.836-.043a.218.218 0 0 1-.165-.074Zm-1.047-5.78 1.38 5.49 6.44.042-.668-5.485-7.152-.046ZM73.269 78.928a.163.163 0 0 1-.04-.11l.068-5.865c0-.096.085-.174.194-.18l7.662-.4a.22.22 0 0 1 .162.057.164.164 0 0 1 .055.147l-.834 5.909c-.011.087-.092.154-.192.159l-6.896.357a.23.23 0 0 1-.155-.05.217.217 0 0 1-.024-.024Zm.44-5.802-.064 5.501 6.503-.337.78-5.54-7.22.376Z"/>
  <path fill="#C1C0C0" d="M66.273 79.088a.169.169 0 0 1-.039-.088l-.711-5.85a.164.164 0 0 1 .049-.139.219.219 0 0 1 .15-.062l7.776-.176c.056-.001.11.018.15.052a.168.168 0 0 1 .062.132l-.068 5.865c0 .099-.09.178-.2.18l-6.997.16a.218.218 0 0 1-.172-.074Zm-.315-5.78.667 5.486 6.606-.15.063-5.503-7.336.167ZM43.438 43.926l-.005-.006a.165.165 0 0 1-.027-.154l2.352-6.947c.028-.083.119-.138.216-.13l5.733.438c.06.005.114.031.15.074a.168.168 0 0 1 .035.146l-1.713 6.997c-.022.09-.116.15-.22.143l-6.372-.488a.216.216 0 0 1-.15-.073Zm2.67-6.861-2.233 6.591 5.938.454 1.625-6.638-5.33-.407ZM42.629 65.757a.168.168 0 0 1-.039-.09l-.802-7.162a.17.17 0 0 1 .059-.145.221.221 0 0 1 .164-.054l6.897.53c.1.008.18.078.189.166l.669 7.149a.174.174 0 0 1-.06.144.226.226 0 0 1-.165.052l-6.763-.517a.216.216 0 0 1-.149-.073Zm-.405-7.07.761 6.794 6.348.485-.635-6.78-6.474-.498Z"/>
  <path fill="#C1C0C0" d="m51.523 37.416-.004-.004a.162.162 0 0 1-.026-.16l2.414-6.395c.029-.077.113-.128.205-.124l5.452.21a.22.22 0 0 1 .154.07c.05.052.051.095.04.148L58.3 37.59c-.02.088-.11.15-.212.146l-6.407-.245a.217.217 0 0 1-.158-.075Zm2.728-6.313-2.279 6.034 5.957.23 1.376-6.07-5.054-.195ZM41.827 58.596a.163.163 0 0 1-.04-.114l.275-7.37a.172.172 0 0 1 .068-.13.228.228 0 0 1 .156-.045l6.763.518c.11.01.191.09.19.186l-.142 7.38a.175.175 0 0 1-.068.132.223.223 0 0 1-.156.046l-6.897-.53a.215.215 0 0 1-.149-.073Zm.641-7.28-.26 7.005 6.48.498.134-7.016-6.354-.487Z"/>
  <path fill="#C1C0C0" d="M42.101 51.226a.165.165 0 0 1-.038-.137l1.337-7.3c.017-.094.114-.16.222-.152l6.371.487a.218.218 0 0 1 .143.066.172.172 0 0 1 .046.137l-.945 7.33c-.012.099-.111.17-.223.16L42.25 51.3a.22.22 0 0 1-.145-.069l-.004-.004Zm1.677-7.212-1.27 6.94 6.341.486.897-6.97-5.968-.456ZM87.21 43.556a.168.168 0 0 1-.033-.062l-2.03-6.911a.163.163 0 0 1 .03-.147.21.21 0 0 1 .143-.079l5.908-.702c.096-.013.19.034.223.12l2.683 6.831a.16.16 0 0 1-.02.155.208.208 0 0 1-.148.084l-6.561.784a.221.221 0 0 1-.194-.073Zm-1.604-6.866 1.925 6.557 6.13-.733-2.546-6.479-5.509.655ZM89.1 65.366a.167.167 0 0 1-.04-.11l.106-7.17c.001-.09.078-.166.18-.177l7.104-.844a.221.221 0 0 1 .165.045c.045.036.07.085.07.14l-.246 7.182c-.004.089-.08.162-.179.175l-6.966.832a.231.231 0 0 1-.165-.044.221.221 0 0 1-.03-.029Zm.477-7.117-.1 6.8 6.554-.783.232-6.812-6.686.795Z"/>
  <path fill="#C1C0C0" d="M78.659 37.188a.177.177 0 0 1-.036-.068l-1.643-6.358a.165.165 0 0 1 .035-.148.213.213 0 0 1 .147-.073l5.55-.46c.094-.008.183.038.214.118l2.616 6.276a.164.164 0 0 1-.02.16.21.21 0 0 1-.154.084l-6.523.542a.219.219 0 0 1-.186-.073Zm-1.223-6.305 1.55 6.001 6.075-.505-2.468-5.923-5.157.428ZM50.847 72.918a.172.172 0 0 1-.037-.074L49.356 66.2a.165.165 0 0 1 .047-.153.218.218 0 0 1 .165-.063l7.558.29c.1.003.182.07.196.157l1.015 6.627a.168.168 0 0 1-.052.147c-.041.04-.1.061-.161.059l-7.12-.272a.218.218 0 0 1-.157-.074Zm-1.035-6.56 1.374 6.276 6.708.257-.96-6.26-7.122-.273ZM89.206 58.197a.17.17 0 0 1-.04-.094l-.636-7.363c-.008-.096.07-.181.178-.195l6.965-.832a.228.228 0 0 1 .156.039.184.184 0 0 1 .078.125l.777 7.351c.01.097-.069.184-.179.197l-7.105.844a.226.226 0 0 1-.157-.038.19.19 0 0 1-.037-.034Zm-.249-7.314.605 7 6.691-.796-.739-6.987-6.557.783Z"/>
  <path fill="#C1C0C0" d="M88.57 50.834a.175.175 0 0 1-.038-.079l-1.359-7.277a.163.163 0 0 1 .038-.137.207.207 0 0 1 .139-.072l6.56-.785c.108-.012.208.05.231.143l1.762 7.229c.012.05 0 .101-.033.143a.217.217 0 0 1-.141.076l-6.965.832a.222.222 0 0 1-.195-.073Zm-.954-7.23 1.291 6.918 6.544-.781-1.675-6.873-6.16.736ZM80.998 72.662a.168.168 0 0 1-.04-.117l.403-6.659c.006-.09.085-.162.188-.171l7.698-.638a.228.228 0 0 1 .167.054c.044.043.065.094.057.148l-.85 6.696c-.01.086-.088.153-.186.161l-7.25.6a.225.225 0 0 1-.187-.074Zm.767-6.6-.381 6.292 6.844-.567.804-6.326-7.267.601ZM57.93 37.662a.165.165 0 0 1-.036-.143l1.458-6.43c.02-.085.105-.146.204-.146l5.81.035c.056 0 .11.021.15.058.039.039.058.086.055.135l-.434 6.439c-.007.096-.098.171-.208.17l-6.833-.043a.22.22 0 0 1-.16-.067l-.006-.008Zm1.795-6.354-1.377 6.066 6.387.041.41-6.074-5.42-.033ZM71.76 37.546a.169.169 0 0 1-.04-.093l-.61-6.412a.172.172 0 0 1 .05-.135.222.222 0 0 1 .145-.062l5.865-.304c.1-.005.191.056.215.142l1.642 6.358a.17.17 0 0 1-.036.15.215.215 0 0 1-.153.072l-6.898.357a.218.218 0 0 1-.18-.073Zm-.22-6.35.576 6.05 6.453-.334-1.55-6-5.478.285Z"/>
  <path fill="#C1C0C0" d="M64.763 37.706a.17.17 0 0 1-.04-.118l.434-6.439c.007-.094.095-.168.202-.17l5.953-.135c.11-.002.202.069.212.167l.61 6.412a.17.17 0 0 1-.053.136.216.216 0 0 1-.148.06l-6.998.162a.222.222 0 0 1-.154-.056l-.018-.019Zm.797-6.368-.41 6.073 6.553-.15-.576-6.05-5.567.127ZM57.966 73.19a.168.168 0 0 1-.038-.084l-1.016-6.627a.167.167 0 0 1 .05-.144.225.225 0 0 1 .156-.062l8.062.052c.11 0 .196.075.205.169l.55 6.624c.004.051-.017.1-.056.137a.223.223 0 0 1-.152.058l-7.596-.049a.219.219 0 0 1-.165-.074Zm-.612-6.552.96 6.263 7.192.047-.52-6.26-7.632-.05ZM49.81 44.413a.168.168 0 0 1-.036-.146l1.713-6.997c.022-.087.111-.147.212-.143l6.407.246a.218.218 0 0 1 .15.065c.036.02.053.089.047.14L57.298 44.6c-.014.093-.106.162-.214.158l-7.116-.27a.218.218 0 0 1-.155-.071l-.003-.004Zm2.046-6.916-1.625 6.636 6.68.255.952-6.66-6.007-.23ZM73.337 73.062a.168.168 0 0 1-.04-.106l-.068-6.636c0-.097.085-.177.195-.183l8.131-.423a.223.223 0 0 1 .158.053.166.166 0 0 1 .062.139l-.403 6.658c-.007.093-.09.167-.195.172l-7.661.4a.224.224 0 0 1-.18-.074Zm.308-6.572.064 6.271 7.259-.378.38-6.293-7.703.4Z"/>
  <path fill="#C1C0C0" d="M65.562 73.239a.174.174 0 0 1-.04-.095l-.55-6.624a.172.172 0 0 1 .053-.135.224.224 0 0 1 .148-.06l8.258-.188a.222.222 0 0 1 .15.051c.04.032.062.08.062.129l.068 6.636c0 .1-.089.181-.202.184l-7.775.176a.218.218 0 0 1-.172-.074Zm-.161-6.555.52 6.26 7.373-.167-.062-6.272-7.831.18ZM49.393 66.273a.173.173 0 0 1-.04-.092l-.67-7.149a.172.172 0 0 1 .058-.14.225.225 0 0 1 .158-.056l7.705.293c.105.003.19.076.198.17l.522 7.144a.171.171 0 0 1-.059.14.221.221 0 0 1-.157.054l-7.557-.29a.214.214 0 0 1-.158-.073Zm-.277-7.065.635 6.783 7.145.273-.495-6.778-7.285-.278ZM79.96 44.157a.175.175 0 0 1-.038-.078l-1.3-6.97c-.01-.049.004-.1.04-.14a.216.216 0 0 1 .143-.07l6.523-.542c.102-.01.196.05.22.136l2.03 6.91a.165.165 0 0 1-.03.15.215.215 0 0 1-.151.077l-7.252.6a.22.22 0 0 1-.186-.073Zm-.894-6.914 1.232 6.61 6.819-.566-1.925-6.554-6.126.51Z"/>
  <path fill="#C1C0C0" d="M48.724 59.125a.17.17 0 0 1-.04-.111l.141-7.381c0-.049.024-.095.065-.129a.222.222 0 0 1 .15-.05l7.558.29c.112.004.197.084.199.181l.005 7.386c0 .05-.023.096-.064.131a.222.222 0 0 1-.152.05l-7.705-.293a.218.218 0 0 1-.157-.074Zm.51-7.298-.134 7.016 7.287.278-.005-7.021-7.148-.273Z"/>
  <path fill="#C1C0C0" d="M48.865 51.744a.169.169 0 0 1-.039-.128l.944-7.331c.013-.095.107-.165.215-.161l7.116.27a.222.222 0 0 1 .145.06c.04.032.057.085.053.133l-.503 7.35c-.007.099-.103.174-.215.17l-7.558-.289a.217.217 0 0 1-.148-.063l-.01-.01Zm1.296-7.25-.899 6.97 7.133.271.479-6.985-6.713-.255ZM81.401 66.004a.166.166 0 0 1-.04-.108l-.043-7.156c0-.093.08-.172.187-.18l7.848-.652a.227.227 0 0 1 .16.047.17.17 0 0 1 .067.137l-.107 7.17c-.002.092-.082.17-.188.178l-7.698.637a.229.229 0 0 1-.159-.046.19.19 0 0 1-.027-.027Zm.332-7.099.04 6.791 7.289-.603.1-6.804-7.43.616Z"/>
  <path fill="#C1C0C0" d="M81.358 58.848a.167.167 0 0 1-.04-.097l-.486-7.376c-.007-.098.075-.182.186-.192l7.698-.638a.23.23 0 0 1 .153.042.179.179 0 0 1 .073.125l.637 7.363c.008.1-.074.186-.186.195l-7.848.65a.224.224 0 0 1-.187-.072Zm-.102-7.32.463 7.013 7.432-.616-.606-7-7.289.604Z"/>
  <path fill="#C1C0C0" d="M80.872 51.472a.168.168 0 0 1-.04-.088l-.912-7.315a.169.169 0 0 1 .045-.135.214.214 0 0 1 .141-.066l7.252-.6c.107-.01.206.055.224.152l1.358 7.277c.01.05-.005.1-.04.14a.217.217 0 0 1-.144.07l-7.698.639a.22.22 0 0 1-.186-.074Zm-.518-7.259.868 6.953 7.274-.602-1.29-6.918-6.852.567ZM56.926 44.684a.167.167 0 0 1-.039-.131l1.005-7.022c.013-.091.101-.16.206-.159l6.833.044c.056 0 .109.021.148.056.038.036.06.083.058.132l-.24 7.028c-.004.099-.097.176-.21.176l-7.596-.05a.222.222 0 0 1-.154-.062l-.011-.012Zm1.354-6.947-.953 6.658 7.16.047.23-6.663-6.437-.042Z"/>
  <path fill="#C1C0C0" d="M72.299 44.556a.17.17 0 0 1-.04-.096l-.539-7.01a.169.169 0 0 1 .052-.133.223.223 0 0 1 .143-.061l6.898-.357c.105-.006.198.059.216.152l1.3 6.97a.169.169 0 0 1-.042.142.223.223 0 0 1-.15.068l-7.66.399a.218.218 0 0 1-.178-.074Zm-.152-6.947.511 6.647 7.226-.377-1.232-6.607-6.505.337Z"/>
  <path fill="#C1C0C0" d="M64.522 44.734a.17.17 0 0 1-.04-.114l.24-7.027c.004-.096.092-.174.202-.176l6.998-.161c.11-.002.205.074.212.17l.538 7.01a.174.174 0 0 1-.053.135.224.224 0 0 1-.148.06l-7.777.177a.225.225 0 0 1-.152-.054l-.02-.02Zm.609-6.958-.228 6.663 7.342-.168-.511-6.647-6.603.152ZM56.95 66.563a.17.17 0 0 1-.04-.096l-.522-7.144a.168.168 0 0 1 .056-.137.221.221 0 0 1 .152-.057l8.22.052c.112 0 .2.077.206.174l.363 7.145a.171.171 0 0 1-.057.133.226.226 0 0 1-.15.056l-8.062-.052a.217.217 0 0 1-.165-.074Zm-.134-7.069.495 6.78 7.651.05-.345-6.78-7.801-.05ZM73.27 66.426a.17.17 0 0 1-.04-.103l-.204-7.145c-.003-.098.083-.18.195-.186l8.291-.434a.224.224 0 0 1 .153.05.16.16 0 0 1 .066.132l.044 7.155c0 .097-.085.177-.195.183l-8.131.422a.226.226 0 0 1-.153-.047.173.173 0 0 1-.026-.027Zm.175-7.081.193 6.78 7.722-.401-.04-6.79-7.875.41Z"/>
  <path fill="#C1C0C0" d="M65.012 66.615a.168.168 0 0 1-.04-.1l-.364-7.145a.17.17 0 0 1 .055-.132.221.221 0 0 1 .146-.057l8.418-.19a.228.228 0 0 1 .149.05c.039.036.062.08.064.128l.203 7.145c.002.1-.088.184-.201.187l-8.258.188a.22.22 0 0 1-.172-.074Zm.019-7.075.345 6.78 7.848-.179-.193-6.781-8 .18Z"/>
  <path fill="#C1C0C0" d="M56.428 59.419a.171.171 0 0 1-.04-.108l-.006-7.386c0-.049.022-.095.061-.13a.229.229 0 0 1 .148-.052l8.059.05c.113 0 .203.08.205.178l.166 7.388a.17.17 0 0 1-.059.131.223.223 0 0 1-.148.055l-8.22-.052a.218.218 0 0 1-.166-.075Zm.368-7.31.005 7.021 7.802.05-.157-7.025-7.65-.047Z"/>
  <path fill="#C1C0C0" d="M56.423 52.033a.169.169 0 0 1-.04-.119l.503-7.349c.007-.096.097-.171.208-.17l7.596.049c.115.001.207.083.206.183l-.04 7.35a.174.174 0 0 1-.062.128.225.225 0 0 1-.147.052l-8.059-.05a.224.224 0 0 1-.165-.074Zm.864-7.273-.478 6.985 7.633.046.04-6.985-7.194-.046ZM73.066 59.281a.167.167 0 0 1-.04-.101l-.327-7.388c-.004-.098.082-.182.194-.188l8.132-.422a.226.226 0 0 1 .15.046.174.174 0 0 1 .07.125l.486 7.376c.007.1-.08.186-.194.193l-8.292.433a.228.228 0 0 1-.152-.047.185.185 0 0 1-.027-.027Zm.055-7.323.31 7.022 7.874-.411-.461-7.013-7.723.402Z"/>
  <path fill="#C1C0C0" d="M64.648 59.47a.168.168 0 0 1-.04-.104l-.166-7.388c-.003-.1.087-.183.2-.185l8.258-.189c.113-.002.21.076.212.176l.327 7.387a.165.165 0 0 1-.056.131.217.217 0 0 1-.145.057l-8.418.19a.227.227 0 0 1-.149-.051.207.207 0 0 1-.023-.024Zm.211-7.318.158 7.024 8.001-.18-.31-7.023-7.849.179Z"/>
  <path fill="#C1C0C0" d="M72.74 51.894a.165.165 0 0 1-.04-.098l-.44-7.338c-.007-.1.08-.185.193-.191l7.66-.4c.11-.005.206.068.219.163l.912 7.315a.17.17 0 0 1-.047.137.22.22 0 0 1-.146.064l-8.132.422a.226.226 0 0 1-.18-.074Zm-.057-7.275.419 6.975 7.707-.4-.867-6.953-7.259.378Z"/>
  <path fill="#C1C0C0" d="M64.482 52.083a.17.17 0 0 1-.041-.11l.04-7.349c.002-.097.09-.178.202-.18l7.777-.178c.112-.002.208.076.212.173l.44 7.338a.17.17 0 0 1-.054.133.222.222 0 0 1-.147.058l-8.257.189a.22.22 0 0 1-.172-.074Zm.413-7.28-.038 6.985 7.831-.179-.42-6.974-7.373.168Z"/>
  <path fill="#484747" d="M37.936 36.75c.068 0 .102.068.102.204 0 .136-.034.204-.102.204-.952 0-1.643.26-2.074.782-.43.521-.646 1.371-.646 2.55v17.918c0 .045-.057.08-.17.102-.113.023-.193.011-.238-.034l-15.64-18.938-.306-.34v15.096c0 1.179.204 2.029.612 2.55.43.499 1.11.748 2.04.748.068 0 .102.068.102.204 0 .136-.034.204-.102.204-.567 0-.997-.011-1.292-.034l-1.7-.034-1.734.034c-.317.023-.782.034-1.394.034-.045 0-.068-.068-.068-.204 0-.136.023-.204.068-.204.975 0 1.666-.25 2.074-.748.408-.521.612-1.371.612-2.55V38.382c-.884-.816-1.78-1.224-2.686-1.224-.068 0-.102-.068-.102-.204 0-.136.034-.204.102-.204l1.258.034c.272.023.646.034 1.122.034.499 0 .907-.011 1.224-.034.317-.023.567-.034.748-.034.181 0 .306.045.374.136.09.068.227.238.408.51.272.408.544.782.816 1.122L34.434 54.6V40.49c0-1.179-.204-2.029-.612-2.55-.385-.521-1.043-.782-1.972-.782-.045 0-.068-.068-.068-.204 0-.136.023-.204.068-.204l1.326.034c.68.045 1.235.068 1.666.068.408 0 .975-.023 1.7-.068l1.394-.034Zm14.775 16.728c0-.068.057-.102.17-.102.136 0 .204.034.204.102-.159 1.632-.238 2.97-.238 4.012 0 .181-.034.317-.102.408-.068.068-.204.102-.408.102H39.893c-.045 0-.068-.068-.068-.204 0-.136.023-.204.068-.204.748 0 1.292-.057 1.632-.17.34-.113.567-.329.68-.646.136-.34.204-.85.204-1.53V44.842c0-.68-.068-1.179-.204-1.496-.113-.317-.34-.533-.68-.646-.34-.136-.884-.204-1.632-.204-.045 0-.068-.068-.068-.204 0-.136.023-.204.068-.204h11.832c.227 0 .34.09.34.272l.034 2.108c.023.43.034.975.034 1.632 0 .068-.068.102-.204.102-.136 0-.204-.034-.204-.102-.09-1.043-.476-1.893-1.156-2.55-.657-.68-1.473-1.02-2.448-1.02h-.952c-.793 0-1.371.068-1.734.204-.363.113-.612.329-.748.646s-.204.816-.204 1.496v4.658c2.199-.023 3.695-.08 4.488-.17.816-.113 1.28-.17 1.394-.17.113 0 .17.238.17.714 0 .521-.056.782-.17.782-.09 0-.544-.057-1.36-.17-.816-.136-2.323-.227-4.522-.272v4.862c0 .657.068 1.156.204 1.496.136.317.386.544.748.68.386.113.963.17 1.734.17h1.632c.907 0 1.723-.363 2.448-1.088.725-.748 1.213-1.711 1.462-2.89Zm6.864-10.948c-.862 0-1.542.125-2.04.374-.5.227-.896.623-1.19 1.19-.272.567-.488 1.371-.646 2.414 0 .045-.068.068-.204.068-.114 0-.17-.023-.17-.068.068-.521.147-1.36.238-2.516.09-1.156.136-2.04.136-2.652 0-.113.068-.17.204-.17.136 0 .204.057.204.17 0 .295.17.487.51.578.34.068.759.102 1.258.102 1.994.045 3.706.068 5.134.068l2.958-.034c.408-.023.94-.034 1.598-.034.816 0 1.416-.045 1.802-.136.385-.113.634-.34.748-.68.045-.068.124-.102.238-.102.113 0 .17.034.17.102-.136 2.448-.204 4.216-.204 5.304 0 .045-.068.068-.204.068-.114 0-.17-.023-.17-.068-.023-1.02-.148-1.813-.374-2.38-.204-.567-.556-.975-1.054-1.224-.5-.25-1.19-.374-2.074-.374-.975 0-1.621.159-1.938.476-.318.295-.476.907-.476 1.836v10.404c0 .703.068 1.213.204 1.53.136.317.396.533.782.646.385.113 1.02.17 1.904.17.068 0 .102.068.102.204 0 .136-.034.204-.102.204a29.67 29.67 0 0 1-1.632-.034l-2.38-.034-2.278.034c-.408.023-.975.034-1.7.034-.046 0-.068-.068-.068-.204 0-.136.022-.204.068-.204.86 0 1.496-.057 1.904-.17.408-.113.68-.329.816-.646.158-.34.238-.85.238-1.53V44.774c0-.657-.057-1.133-.17-1.428a.923.923 0 0 0-.612-.646c-.318-.113-.828-.17-1.53-.17Zm16.867 0c-.861 0-1.541.125-2.04.374-.499.227-.895.623-1.19 1.19-.272.567-.487 1.371-.646 2.414 0 .045-.068.068-.204.068-.113 0-.17-.023-.17-.068.068-.521.147-1.36.238-2.516.09-1.156.136-2.04.136-2.652 0-.113.068-.17.204-.17.136 0 .204.057.204.17 0 .295.17.487.51.578.34.068.76.102 1.258.102 1.995.045 3.706.068 5.134.068l2.958-.034c.408-.023.94-.034 1.598-.034.816 0 1.416-.045 1.802-.136.385-.113.635-.34.748-.68.045-.068.124-.102.238-.102.113 0 .17.034.17.102-.136 2.448-.204 4.216-.204 5.304 0 .045-.068.068-.204.068-.114 0-.17-.023-.17-.068-.023-1.02-.147-1.813-.374-2.38-.204-.567-.556-.975-1.054-1.224-.499-.25-1.19-.374-2.074-.374-.975 0-1.62.159-1.938.476-.317.295-.476.907-.476 1.836v10.404c0 .703.068 1.213.204 1.53.136.317.397.533.782.646.385.113 1.02.17 1.904.17.068 0 .102.068.102.204 0 .136-.034.204-.102.204a29.67 29.67 0 0 1-1.632-.034l-2.38-.034-2.278.034c-.408.023-.975.034-1.7.034-.046 0-.068-.068-.068-.204 0-.136.023-.204.068-.204.861 0 1.496-.057 1.904-.17.408-.113.68-.329.816-.646.158-.34.238-.85.238-1.53V44.774c0-.657-.057-1.133-.17-1.428a.923.923 0 0 0-.612-.646c-.317-.113-.828-.17-1.53-.17Zm28.121-.442c.068 0 .102.068.102.204 0 .136-.034.204-.102.204-.725 0-1.439.272-2.142.816-.703.521-1.349 1.27-1.938 2.244l-2.788 4.624v5.066c0 .703.068 1.213.204 1.53.136.317.397.533.782.646.408.113 1.054.17 1.938.17.068 0 .102.068.102.204 0 .136-.034.204-.102.204a29.67 29.67 0 0 1-1.632-.034l-2.346-.034-2.21.034c-.43.023-1.02.034-1.768.034-.068 0-.102-.068-.102-.204 0-.136.034-.204.102-.204.861 0 1.496-.057 1.904-.17.408-.113.68-.329.816-.646.159-.34.238-.85.238-1.53v-4.522l-3.808-5.814c-.567-.884-1.1-1.507-1.598-1.87-.499-.363-1.088-.544-1.768-.544-.045 0-.068-.068-.068-.204 0-.136.023-.204.068-.204l1.088.034c.499.045.873.068 1.122.068.703 0 1.575-.023 2.618-.068l1.666-.034c.068 0 .102.068.102.204 0 .136-.034.204-.102.204-.499 0-.884.068-1.156.204-.272.136-.408.329-.408.578 0 .181.102.43.306.748l3.706 5.678 2.38-4.182c.385-.703.578-1.28.578-1.734 0-.408-.125-.725-.374-.952-.25-.227-.6-.34-1.054-.34-.045 0-.068-.068-.068-.204 0-.136.023-.204.068-.204l1.428.034c.725.045 1.417.068 2.074.068.34 0 .737-.023 1.19-.068l.952-.034Zm4.054-5.61c.68 0 1.213.26 1.598.782.386.499.578 1.224.578 2.176 0 .907-.204 1.757-.612 2.55-.408.77-1.008 1.541-1.802 2.312-.022.023-.056.034-.102.034-.068 0-.124-.034-.17-.102-.045-.068-.045-.125 0-.17 1.111-1.133 1.666-2.47 1.666-4.012 0-.635-.113-1.1-.34-1.394-.204.34-.555.51-1.054.51-.408 0-.736-.125-.986-.374-.226-.25-.34-.567-.34-.952 0-.907.522-1.36 1.564-1.36Zm6.979 8.364c0 .68.17 1.28.51 1.802.363.499.805.918 1.326 1.258.521.34 1.213.737 2.074 1.19.929.499 1.677.94 2.244 1.326a4.912 4.912 0 0 1 1.428 1.394c.385.567.578 1.247.578 2.04 0 .839-.238 1.61-.714 2.312-.453.68-1.111 1.224-1.972 1.632-.861.408-1.87.612-3.026.612-1.655 0-3.026-.397-4.114-1.19a.43.43 0 0 1-.238-.204 3.736 3.736 0 0 1-.068-.442l-.34-3.366c-.023-.09.023-.147.136-.17.136-.023.227.011.272.102a6.979 6.979 0 0 0 1.87 3.366c.952.907 2.006 1.36 3.162 1.36.793 0 1.473-.227 2.04-.68.589-.476.884-1.201.884-2.176 0-1.043-.34-1.893-1.02-2.55-.68-.657-1.666-1.326-2.958-2.006a30.83 30.83 0 0 1-2.176-1.292 5.554 5.554 0 0 1-1.326-1.394c-.363-.544-.544-1.201-.544-1.972 0-1.292.499-2.3 1.496-3.026.997-.725 2.21-1.088 3.638-1.088 1.201 0 2.335.26 3.4.782.204.113.329.204.374.272.068.045.113.147.136.306l.238 2.958c0 .09-.068.147-.204.17-.113.023-.181-.011-.204-.102-.113-.567-.374-1.145-.782-1.734a4.92 4.92 0 0 0-1.53-1.53 3.598 3.598 0 0 0-2.04-.612c-.816 0-1.451.25-1.904.748-.431.499-.646 1.133-.646 1.904ZM126.604 66.332h-1.25l7.177-30.823 1.292-.041-7.219 30.864Zm12.838-6.378h-1.394l8.613-8.613-8.613-8.654h1.394l8.614 8.654-8.614 8.613ZM9.505 57.954.892 49.341l8.613-8.654h1.394L2.286 49.34l8.613 8.613H9.505Z"/>
  <path fill="#393939" d="M47.22 63.5c.016 0 .024.024.024.072 0 .048-.008.072-.024.072a1.18 1.18 0 0 0-.708.216c-.2.144-.372.388-.516.732l-2.556 6.396c-.008.032-.052.048-.132.048-.064 0-.108-.016-.132-.048l-1.56-3.408-1.356 3.408c-.008.032-.052.048-.132.048-.064 0-.108-.016-.132-.048l-2.988-6.492c-.144-.32-.288-.54-.432-.66-.144-.128-.34-.192-.588-.192-.024 0-.036-.024-.036-.072 0-.048.012-.072.036-.072l.456.012c.224.016.404.024.54.024.288 0 .6-.008.936-.024l.492-.012c.024 0 .036.024.036.072 0 .048-.012.072-.036.072-.24 0-.42.028-.54.084-.112.056-.168.152-.168.288 0 .12.04.264.12.432l2.556 5.484 1.08-2.688-1.26-2.748c-.144-.312-.288-.532-.432-.66-.144-.128-.332-.192-.564-.192-.024 0-.036-.024-.036-.072 0-.048.012-.072.036-.072l.444.012c.224.016.4.024.528.024.224 0 .456-.008.696-.024l.324-.012c.024 0 .036.024.036.072 0 .048-.012.072-.036.072a.97.97 0 0 0-.312.036c-.056.024-.084.072-.084.144 0 .104.072.312.216.624l.876 1.872.708-1.788c.088-.24.132-.42.132-.54 0-.12-.04-.208-.12-.264-.08-.056-.208-.084-.384-.084-.024 0-.036-.024-.036-.072 0-.048.012-.072.036-.072l.276.012c.16.016.328.024.504.024.16 0 .344-.008.552-.024l.492-.012c.016 0 .024.024.024.072 0 .048-.008.072-.024.072-.272 0-.504.072-.696.216-.184.136-.348.38-.492.732l-.816 2.052 1.524 3.288 2.148-5.376c.064-.168.096-.308.096-.42a.397.397 0 0 0-.216-.372c-.144-.08-.372-.12-.684-.12-.024 0-.036-.024-.036-.072 0-.048.012-.072.036-.072l.492.012c.272.016.52.024.744.024.16 0 .344-.008.552-.024l.516-.012Zm4.61 5.904c0-.024.02-.036.06-.036.049 0 .073.012.073.036a15.206 15.206 0 0 0-.084 1.416c0 .064-.012.112-.036.144-.024.024-.072.036-.144.036h-4.392c-.016 0-.024-.024-.024-.072 0-.048.008-.072.024-.072.264 0 .456-.02.576-.06a.36.36 0 0 0 .24-.228c.048-.12.072-.3.072-.54v-3.672c0-.24-.024-.416-.072-.528a.36.36 0 0 0-.24-.228c-.12-.048-.312-.072-.576-.072-.016 0-.024-.024-.024-.072 0-.048.008-.072.024-.072h4.176c.08 0 .12.032.12.096l.012.744c.008.152.012.344.012.576 0 .024-.024.036-.072.036-.048 0-.072-.012-.072-.036-.032-.368-.168-.668-.408-.9-.232-.24-.52-.36-.864-.36h-.336c-.28 0-.484.024-.612.072a.4.4 0 0 0-.264.228c-.048.112-.072.288-.072.528v1.644c.776-.008 1.304-.028 1.584-.06.288-.04.452-.06.492-.06.04 0 .06.084.06.252 0 .184-.02.276-.06.276-.032 0-.192-.02-.48-.06-.288-.048-.82-.08-1.596-.096v1.716c0 .232.024.408.072.528a.438.438 0 0 0 .264.24c.136.04.34.06.612.06h.576c.32 0 .608-.128.864-.384.256-.264.428-.604.516-1.02Zm4.343-1.512c.576.04 1.02.176 1.332.408.312.232.468.564.468.996 0 .52-.208.944-.624 1.272-.416.32-.952.48-1.608.48-.208 0-.452-.012-.732-.036a21.558 21.558 0 0 0-.396-.024 9.396 9.396 0 0 0-.492-.012l-.696.012c-.136.008-.32.012-.552.012-.016 0-.024-.024-.024-.072 0-.048.008-.072.024-.072.272 0 .468-.02.588-.06a.363.363 0 0 0 .252-.228c.048-.12.072-.3.072-.54v-3.672c0-.24-.024-.416-.072-.528a.363.363 0 0 0-.252-.228c-.12-.048-.312-.072-.576-.072-.016 0-.024-.024-.024-.072 0-.048.008-.072.024-.072l.54.012c.304.016.536.024.696.024.216 0 .436-.012.66-.036a8.128 8.128 0 0 1 .732-.036c.576 0 1.024.104 1.344.312.32.208.48.5.48.876 0 .312-.104.588-.312.828-.208.232-.492.408-.852.528Zm-.972-2.388c-.192 0-.336.024-.432.072-.096.04-.164.124-.204.252-.04.12-.06.304-.06.552v1.512c.136.008.328.012.576.012.528 0 .908-.072 1.14-.216.24-.152.36-.452.36-.9s-.116-.772-.348-.972c-.232-.208-.576-.312-1.032-.312Zm.324 5.352c1.104 0 1.656-.428 1.656-1.284 0-.456-.168-.816-.504-1.08-.336-.264-.852-.396-1.548-.396-.28 0-.488.008-.624.024v1.908c0 .304.068.52.204.648.144.12.416.18.816.18Zm7.457-5.952c0 .312.076.584.228.816.152.232.336.428.552.588.216.152.52.348.912.588.416.248.74.456.972.624.232.168.428.384.588.648.168.256.252.564.252.924 0 .384-.096.732-.288 1.044a2 2 0 0 1-.852.744c-.368.176-.812.264-1.332.264-.616 0-1.18-.14-1.692-.42a.211.211 0 0 1-.084-.084 1.316 1.316 0 0 1-.024-.144l-.156-1.632c-.008-.032.008-.052.048-.06.048-.008.076.004.084.036.128.576.364 1.072.708 1.488.352.416.816.624 1.392.624.4 0 .736-.108 1.008-.324.28-.224.42-.576.42-1.056 0-.36-.08-.672-.24-.936a2.187 2.187 0 0 0-.588-.648 8.775 8.775 0 0 0-.924-.612 11.375 11.375 0 0 1-.912-.6c-.216-.168-.4-.38-.552-.636a1.73 1.73 0 0 1-.228-.9c0-.4.104-.74.312-1.02.216-.288.492-.5.828-.636a2.8 2.8 0 0 1 1.092-.216c.472 0 .94.096 1.404.288.12.04.18.108.18.204l.084 1.38c0 .032-.02.048-.06.048-.04 0-.064-.016-.072-.048a2.42 2.42 0 0 0-.516-1.152c-.28-.36-.684-.54-1.212-.54-.448 0-.784.132-1.008.396-.216.256-.324.576-.324.96Zm9.099 4.5c0-.024.02-.036.06-.036.048 0 .072.012.072.036a15.206 15.206 0 0 0-.084 1.416c0 .064-.012.112-.036.144-.024.024-.072.036-.144.036h-4.392c-.016 0-.024-.024-.024-.072 0-.048.008-.072.024-.072.264 0 .456-.02.576-.06a.36.36 0 0 0 .24-.228c.048-.12.072-.3.072-.54v-3.672c0-.24-.024-.416-.072-.528a.36.36 0 0 0-.24-.228c-.12-.048-.312-.072-.576-.072-.016 0-.024-.024-.024-.072 0-.048.008-.072.024-.072h4.176c.08 0 .12.032.12.096l.012.744c.008.152.012.344.012.576 0 .024-.024.036-.072.036-.048 0-.072-.012-.072-.036-.032-.368-.168-.668-.408-.9-.232-.24-.52-.36-.864-.36h-.336c-.28 0-.484.024-.612.072a.4.4 0 0 0-.264.228c-.048.112-.072.288-.072.528v1.644c.776-.008 1.304-.028 1.584-.06.288-.04.452-.06.492-.06.04 0 .06.084.06.252 0 .184-.02.276-.06.276-.032 0-.192-.02-.48-.06-.288-.048-.82-.08-1.596-.096v1.716c0 .232.024.408.072.528a.438.438 0 0 0 .264.24c.136.04.34.06.612.06h.576c.32 0 .608-.128.864-.384.256-.264.428-.604.516-1.02Zm7.138 1.452c.016 0 .024.024.024.072 0 .048-.008.072-.024.072h-1.404c-.144 0-.4-.24-.768-.72-.36-.48-.796-1.144-1.308-1.992a2.516 2.516 0 0 1-.516.048c-.2 0-.352-.008-.456-.024v1.716c0 .248.02.428.06.54a.36.36 0 0 0 .24.228c.12.04.316.06.588.06.016 0 .024.024.024.072 0 .048-.008.072-.024.072-.224 0-.396-.004-.516-.012l-.756-.012-.708.012c-.136.008-.32.012-.552.012-.016 0-.024-.024-.024-.072 0-.048.008-.072.024-.072.264 0 .456-.02.576-.06a.4.4 0 0 0 .264-.228c.048-.12.072-.3.072-.54v-3.672c0-.24-.024-.416-.072-.528a.363.363 0 0 0-.252-.228c-.12-.048-.312-.072-.576-.072-.016 0-.024-.024-.024-.072 0-.048.008-.072.024-.072l.552.012c.288.016.52.024.696.024.144 0 .276-.004.396-.012.128-.008.236-.016.324-.024.248-.024.484-.036.708-.036.52 0 .916.1 1.188.3.272.2.408.488.408.864 0 .32-.092.616-.276.888a2.056 2.056 0 0 1-.744.66c.448.736.824 1.304 1.128 1.704.312.392.596.672.852.84.264.168.548.252.852.252Zm-4.452-2.76c.144.024.324.036.54.036.496 0 .84-.108 1.032-.324.2-.224.3-.548.3-.972 0-.88-.38-1.32-1.14-1.32-.304 0-.504.064-.6.192-.088.128-.132.352-.132.672v1.716ZM85 65.384c.016 0 .024.024.024.072 0 .048-.008.072-.024.072a.924.924 0 0 0-.6.204c-.16.128-.304.352-.432.672l-1.812 4.584c-.008.032-.052.048-.132.048-.08 0-.124-.016-.132-.048l-2.184-4.608c-.16-.336-.3-.56-.42-.672-.12-.12-.284-.18-.492-.18-.024 0-.036-.024-.036-.072 0-.048.012-.072.036-.072l.456.012c.224.016.4.024.528.024.2 0 .444-.008.732-.024l.48-.012c.016 0 .024.024.024.072 0 .048-.008.072-.024.072-.416 0-.624.124-.624.372 0 .088.032.208.096.36l1.836 3.792 1.416-3.72c.056-.168.084-.288.084-.36 0-.296-.268-.444-.804-.444-.024 0-.036-.024-.036-.072 0-.048.012-.072.036-.072l.432.012c.24.016.456.024.648.024.128 0 .288-.008.48-.024l.444-.012Zm2.085 4.644c0 .248.02.428.06.54a.398.398 0 0 0 .252.228c.12.04.316.06.588.06.016 0 .024.024.024.072 0 .048-.008.072-.024.072-.224 0-.4-.004-.528-.012l-.756-.012-.708.012c-.136.008-.32.012-.552.012-.016 0-.024-.024-.024-.072 0-.048.008-.072.024-.072.272 0 .468-.02.588-.06a.36.36 0 0 0 .24-.228c.048-.112.072-.292.072-.54v-3.672c0-.24-.024-.416-.072-.528a.363.363 0 0 0-.252-.228c-.12-.048-.312-.072-.576-.072-.016 0-.024-.024-.024-.072 0-.048.008-.072.024-.072l.552.012c.288.016.524.024.708.024.208 0 .464-.008.768-.024l.516-.012c.016 0 .024.024.024.072 0 .048-.008.072-.024.072-.256 0-.448.024-.576.072a.434.434 0 0 0-.264.252c-.04.112-.06.288-.06.528v3.648Zm5.112-4.788c.304 0 .628.032.972.096a3.4 3.4 0 0 1 .852.252c.056.024.092.048.108.072a.332.332 0 0 1 .036.132l.12 1.236c0 .024-.024.04-.072.048-.04.008-.064-.004-.072-.036-.144-.552-.408-.96-.792-1.224-.376-.264-.844-.396-1.404-.396-.416 0-.792.112-1.128.336a2.334 2.334 0 0 0-.78.924 2.99 2.99 0 0 0-.276 1.308c0 .496.092.976.276 1.44.192.456.476.828.852 1.116.384.288.844.432 1.38.432 1.008 0 1.668-.552 1.98-1.656 0-.024.02-.036.06-.036.016 0 .032.008.048.024.024.008.036.016.036.024l-.156 1.272a.332.332 0 0 1-.036.132c-.016.024-.06.052-.132.084a5.76 5.76 0 0 1-1.92.324c-.76 0-1.384-.152-1.872-.456-.488-.304-.84-.684-1.056-1.14a3.196 3.196 0 0 1-.324-1.38c0-.544.144-1.04.432-1.488.288-.448.684-.8 1.188-1.056a3.656 3.656 0 0 1 1.68-.384Zm7.669 4.164c0-.024.02-.036.06-.036.048 0 .072.012.072.036a15.206 15.206 0 0 0-.084 1.416c0 .064-.012.112-.036.144-.024.024-.072.036-.144.036h-4.392c-.016 0-.024-.024-.024-.072 0-.048.008-.072.024-.072.264 0 .456-.02.576-.06a.36.36 0 0 0 .24-.228c.048-.12.072-.3.072-.54v-3.672c0-.24-.024-.416-.072-.528a.36.36 0 0 0-.24-.228c-.12-.048-.312-.072-.576-.072-.016 0-.024-.024-.024-.072 0-.048.008-.072.024-.072h4.176c.08 0 .12.032.12.096l.012.744c.008.152.012.344.012.576 0 .024-.024.036-.072.036-.048 0-.072-.012-.072-.036-.032-.368-.168-.668-.408-.9-.232-.24-.52-.36-.864-.36h-.336c-.28 0-.484.024-.612.072a.4.4 0 0 0-.264.228c-.048.112-.072.288-.072.528v1.644c.776-.008 1.304-.028 1.584-.06.288-.04.452-.06.492-.06.04 0 .06.084.06.252 0 .184-.02.276-.06.276-.032 0-.192-.02-.48-.06-.288-.048-.82-.08-1.596-.096v1.716c0 .232.024.408.072.528a.438.438 0 0 0 .264.24c.136.04.34.06.612.06h.576c.32 0 .608-.128.864-.384.256-.264.428-.604.516-1.02Zm2.038-3.048c0 .24.06.452.18.636.128.176.284.324.468.444.184.12.428.26.732.42.328.176.592.332.792.468.2.128.368.292.504.492s.204.44.204.72c0 .296-.084.568-.252.816a1.67 1.67 0 0 1-.696.576 2.47 2.47 0 0 1-1.068.216c-.584 0-1.068-.14-1.452-.42a.152.152 0 0 1-.084-.072 1.318 1.318 0 0 1-.024-.156l-.12-1.188c-.008-.032.008-.052.048-.06.048-.008.08.004.096.036.112.464.332.86.66 1.188.336.32.708.48 1.116.48.28 0 .52-.08.72-.24.208-.168.312-.424.312-.768 0-.368-.12-.668-.36-.9-.24-.232-.588-.468-1.044-.708-.32-.176-.576-.328-.768-.456-.184-.136-.34-.3-.468-.492a1.226 1.226 0 0 1-.192-.696c0-.456.176-.812.528-1.068.352-.256.78-.384 1.284-.384.424 0 .824.092 1.2.276a.42.42 0 0 1 .132.096c.024.016.04.052.048.108l.084 1.044c0 .032-.024.052-.072.06-.04.008-.064-.004-.072-.036-.04-.2-.132-.404-.276-.612a1.74 1.74 0 0 0-.54-.54 1.27 1.27 0 0 0-.72-.216c-.288 0-.512.088-.672.264-.152.176-.228.4-.228.672Z"/>
</svg>
